/* XPM */
static char *result[] = {
/* columns rows colors chars-per-pixel */
"64 64 177 2 ",
"   c #000000",
".  c #090604",
"X  c #05030A",
"o  c #09060B",
"O  c #0C0A0B",
"+  c #0A0805",
"@  c #140907",
"#  c #120D0D",
"$  c #1D110B",
"%  c #050415",
"&  c #090617",
"*  c #02021B",
"=  c #08061A",
"-  c #0B081E",
";  c #130D11",
":  c #0F1010",
">  c #161214",
",  c #1A1416",
"<  c #1C161B",
"1  c #1D1C1D",
"2  c #22130C",
"3  c #29160A",
"4  c #2D1A0C",
"5  c #2C1300",
"6  c #331C0B",
"7  c #231B1E",
"8  c #2C1A12",
"9  c #3A220C",
"0  c #0A0720",
"q  c #0E0A24",
"w  c #0F0B2B",
"e  c #110D2B",
"r  c #100C25",
"t  c #1F1529",
"y  c #0A0937",
"u  c #0D0B38",
"i  c #130E33",
"p  c #100C3F",
"a  c #161134",
"s  c #17113B",
"d  c #1A133D",
"f  c #251C22",
"g  c #291C25",
"h  c #2D2129",
"j  c #2E2D2D",
"k  c #272325",
"l  c #32262E",
"z  c #282830",
"x  c #342631",
"c  c #362831",
"v  c #3A2B35",
"b  c #3D2D3A",
"n  c #303130",
"m  c #3F303B",
"M  c #38393F",
"N  c #422102",
"B  c #41260C",
"V  c #512800",
"C  c #58340D",
"Z  c #643A11",
"A  c #6A3E11",
"S  c #4F352D",
"D  c #412F3B",
"F  c #43313D",
"G  c #784203",
"H  c #7B4910",
"J  c #7F4E1F",
"K  c #7E4F24",
"L  c #7B4F3A",
"P  c #150F48",
"I  c #120D44",
"U  c #1D1543",
"Y  c #1E164A",
"T  c #1F1552",
"R  c #22194D",
"E  c #241B53",
"W  c #261C5C",
"Q  c #2A1E5C",
"!  c #39264B",
"~  c #2B1F65",
"^  c #281F6E",
"/  c #261D6F",
"(  c #2C2163",
")  c #2E226B",
"_  c #31246D",
"`  c #3A2767",
"'  c #2E227F",
"]  c #332674",
"[  c #352877",
"{  c #382C77",
"}  c #36287A",
"|  c #38297E",
" . c #35277A",
".. c #463441",
"X. c #493543",
"o. c #4D3946",
"O. c #4F3A48",
"+. c #643F5D",
"@. c #5D3B6C",
"#. c #5B3B67",
"$. c #4B337C",
"%. c #5C3A70",
"&. c #414240",
"*. c gray31",
"=. c #525456",
"-. c #6C4540",
";. c #7F4D52",
":. c #7B4D5E",
">. c #71465C",
",. c #724A6D",
"<. c #676867",
"1. c #64686F",
"2. c #6A6B6A",
"3. c #6A6F74",
"4. c #737373",
"5. c gray50",
"6. c #8A4D06",
"7. c #8D5416",
"8. c #925610",
"9. c #9F5D11",
"0. c #92581B",
"q. c #995D19",
"w. c #955912",
"e. c #BC6F0F",
"r. c #A26319",
"t. c #B56B12",
"y. c #875524",
"u. c #AE6937",
"i. c #A0603B",
"p. c #AB6735",
"a. c #C77201",
"s. c #CA7400",
"d. c #C5740E",
"f. c #CE7A0D",
"g. c #C9770C",
"h. c #D07700",
"j. c #D47A01",
"k. c #D87D04",
"l. c #D37C0A",
"z. c #C37411",
"x. c #814E4E",
"c. c #8E5842",
"v. c #955B4C",
"b. c #9C5F47",
"n. c #8B5652",
"m. c #A5684F",
"M. c #A8684D",
"N. c #A46448",
"B. c #A16353",
"V. c #DA8009",
"C. c #3B2B85",
"Z. c #3D2C8B",
"A. c #3F2C95",
"S. c #36279A",
"D. c #38279E",
"F. c #3A299B",
"G. c #3B2AA1",
"H. c #412F8F",
"J. c #422B86",
"K. c #42318F",
"L. c #412E94",
"P. c #422E9A",
"I. c #423095",
"U. c #44309C",
"Y. c #4631A1",
"T. c #848584",
"R. c #8D8D8C",
"E. c #929292",
"W. c #9F9F9F",
"Q. c #A0A0A0",
"!. c #B9B9B9",
"~. c #CACBCA",
"^. c gray84",
"/. c #DDDDDD",
"(. c #E5E5E5",
"). c #FFFFFF",
"_. c gray95",
/* pixels */
"                                                                                                                                ",
"                                                                                                                                ",
"                                                                                                                                ",
"                                                                                                                                ",
"                                                                                                                                ",
"                                                                                                                                ",
"                                                                                                                                ",
"                                                                                                                                ",
"                                                              X X X                                                             ",
"                                                    X o X X         X X                                                         ",
"                                                X X X   & a E ( _ ( q   X                                                       ",
"                                            X X     e ( Z.P.Y.Y._ R { r X                                                       ",
"                                          o     a [ P.P.A.P.C.e     e a .                                                       ",
"                                      X o   q _ U.P.A.L.L.Z.= + b v ,     o                                                     ",
"                                    X X X Y A.P.A.A.L.A.L.w + F F F X.v ;   o                                                   ",
"                                  o   & ] U.A.A.A.A.L.P.E   v F F F D F ..>   &                                                 ",
"                                &   r C.U.A.A.A.A.A.L.C.X f ..D F F F m F F O X X                                               ",
"                              o   a L.P.A.A.A.A.A.A.U.Y . m D ....F F F F F v X X X                                             ",
"                            o   d L.P.A.A.A.L.A.A.A.Z.% 7 X.X.v k f v X.F m F K 3   o                                           ",
"                          o   a I.P.A.A.A.A.A.A.A.U.(   b v     k j O   v F S g.z.4   o                                         ",
"                        X   q Z.A.A.A.A.L.A.A.A.A.U.a : v   =.(._./.^.4.  z y.h.s.z.6 X o                                       ",
"                        X X C.P.A.A.A.A.A.A.A.A.A.Z.= f   2.).E., + 1 Q.T.. r.j.s.s.z.6   X                                     ",
"                      o   W U.A.A.A.A.A.A.A.P.A.P. .o ; 1 ).T.          E.! G k.s.s.h.z.3 X o                                   ",
"                      X - Z.A.A.A.A.A.A.A.A.A.A.U.W O   4.).O   X   .   n 3.N k.a.s.s.j.t.@ X                                   ",
"                    X   E P.A.A.A.A.A.A.A.A.A.A.P.Y ;   R.(.            , 3.9 V.s.s.s.s.k.w.X o                                 ",
"                    X   ] P.A.A.L.A.A.A.A.A.A.A.P.d , o <.).X       X   j 1.V V.s.s.s.s.s.k.Z   o                               ",
"                    X   ] P.A.A.A.A.A.P.A.A.A.A.P.i , h : ).4.          T.z 6.j.s.s.s.s.s.s.z.$ X                               ",
"                    o   E P.A.A.A.A.A.A.A.A.A.A.P.e > O.. *.).T.: . 1 R.=.5 l.s.s.s.s.s.s.s.k.H   o                             ",
"                      X - A.A.A.A.A.A.A.A.P.A.A.U.e > X.D   n !.~.!.W.&.  q.j.a.s.s.s.s.s.s.s.e.@ X                             ",
"                      o   E U.A.A.A.A.A.A.A.A.A.U.s # ..F F ;   : ,   ; m r.h.s.s.s.h.s.s.s.s.f.9 X                             ",
"                        X   [ P.A.A.A.A.A.A.A.A.P.U O F D F X.F x x F X.b q.j.a.s.s.s.s.s.s.s.f.4   .                           ",
"                        X . = C.P.A.A.A.A.A.A.A.Y.~ . b F F D F F F D F v 0.j.s.s.s.s.s.s.s.V.A   o                             ",
"                          X . - C.U.A.A.A.A.A.A.U.}   c F F D F F D F F D 0.j.a.s.s.s.s.j.f.Z   &                               ",
"                            X   & [ U.A.A.A.A.A.A.I.0 < X.b F F D F D F b 0.h.a.s.s.j.l.9.6   o .                               ",
"                              X   X W I.U.A.A.A.A.U.E   b F b D D D D D b 7.k.j.j.d.8.B     o X                                 ",
"                                X X   q ) L.U.A.A.A.A.- # X.X.........X.! 0.e.7.C $ X   o X                                     ",
"                                    o X   0 W I.A.A.A.| X O 7 f h g f 7 # $ @     X X X                                         ",
"                                      X o X W A.A.A.A.A.| i 0 &         X   X o X                                               ",
"                                      o   ( Y.A.A.A.A.P.P.U.U.C.& o X   X                                                       ",
"                                    o   E U.A.A.A.A.A.] C.A.A.P.Y   X                                                           ",
"                                  &   U U.P.A.A.L.A.P.Y q L.A.P. .X X                                                           ",
"                                o   a U.) ( P.A.L.L.P.H.& U U.A.L.e   X                                                         ",
"                            X X   d L.U.q Y U.A.S.S.S.G.^ X  .P.U.(   o                                                         ",
"                          X   . E U.L.L.& W G.J.%.>.;.;.:.2 i U.A.Z.& X                                                         ",
"                        o X * L v.C.D.L.= ! n.p.p.N.v.v.B.-.X C.A.U.U   X                                                       ",
"                    X o     e $.b.p.%.Z.% K N.#.` R I p P R   ~ U.P./   X                                                       ",
"                    o   , h O % ~ :.u.c.O ! W 0   o # # O   % ' G.Z.#.@ X                                                       ",
"                  X   < O.X..., . y ` ,.< %   > v F F X.o.< t ,.;.i.m.g   X                                                     ",
"                    X O g l c X.c # X u a   h O.F ....b X., 8 m.n.+.Q & X                                                       ",
"                    X X     # F F X.c , O   ; > , X.h b F 7 = E u *   X X                                                       ",
"                      X o   f X.F D X.X.F l #   ; v   l o.>   O .   O X                                                         ",
"                          X O v x o , F F ..X.x X     > f   l l X X                                                             ",
"                          X X     X   # v D D ..v l h O O f 7   X                                                               ",
"                            X o X X o   O D D D F F X.< < X + X o                                                               ",
"                                      X X v ..b F F g   O h h   o                                                               ",
"                                      X X ; ..X.X.h   l O.v X X                                                                 ",
"                                        o   : < ;     , ,   X X                                                                 ",
"                                          o       o X X   X X                                                                   ",
"                                            o o o     X X X                                                                     ",
"                                            o   X       X X .                                                                   ",
"                                            . X X       X X                                                                     ",
"                                            X X o X X X o X & X X o o                                                           ",
"                                            o X X X   X             . o                                                         ",
"                                        X &                 X X       &                                                         "
};
