/* XPM */
static char *result[] = {
/* columns rows colors chars-per-pixel */
"64 64 180 2 ",
"   c #052E06",
".  c #072F08",
"X  c #073406",
"o  c #083507",
"O  c #073905",
"+  c #093D07",
"@  c #083509",
"#  c #0A3D0A",
"$  c #0C3D11",
"%  c #0B4307",
"&  c #0C440A",
"*  c #0E4C0A",
"=  c #0E4A07",
"-  c #104E0D",
";  c #0F510A",
":  c #11520D",
">  c #145D0D",
",  c #0F4A10",
"<  c #0F4615",
"1  c #104B12",
"2  c #135412",
"3  c #145915",
"4  c #165E19",
"5  c #145519",
"6  c #17630F",
"7  c #18670F",
"8  c #176311",
"9  c #186613",
"0  c #176A16",
"q  c #196B12",
"w  c #17611D",
"e  c #19641E",
"r  c #1B6D1B",
"t  c #1C7314",
"y  c #1E7B16",
"u  c #1D741B",
"i  c #1F7D18",
"p  c #207E19",
"a  c #165020",
"s  c #1A5B24",
"d  c #196622",
"f  c #1C6A24",
"g  c #1F6E28",
"h  c #1F7221",
"j  c #1F7823",
"k  c #227D23",
"l  c #22752B",
"z  c #24782C",
"x  c #227725",
"c  c #246B33",
"v  c #277E34",
"b  c #287F34",
"n  c #2A7A38",
"m  c #22831B",
"M  c #258B1D",
"N  c #27911F",
"B  c #28911E",
"V  c #248223",
"C  c #268A24",
"Z  c #288E25",
"A  c #26832C",
"S  c #28852D",
"D  c #278C28",
"F  c #298D2A",
"G  c #2A9620",
"H  c #2D9C23",
"J  c #2C932C",
"K  c #2E992B",
"L  c #329E2C",
"P  c #298731",
"I  c #2B8A32",
"U  c #2A8338",
"Y  c #2F893B",
"T  c #318F3E",
"R  c #2E9433",
"E  c #309634",
"W  c #33943F",
"Q  c #32993A",
"!  c #2FA126",
"~  c #30A227",
"^  c #31A529",
"/  c #35AB2D",
"(  c #37B02F",
")  c #38B02F",
"_  c #37AF30",
"`  c #39AE32",
"'  c #37A539",
"]  c #3AB433",
"[  c #3EB937",
"{  c #3FB339",
"}  c #3FBB39",
"|  c #41BD3B",
" . c #3BC32F",
".. c #3CC531",
"X. c #3ECA34",
"o. c #3EC738",
"O. c #3EC838",
"+. c #40CC37",
"@. c #44C13E",
"#. c #42CD3A",
"$. c #41D137",
"%. c #44D23C",
"&. c #368B48",
"*. c #349841",
"=. c #379A49",
"-. c #3A9D4B",
";. c #359646",
":. c #3DA54F",
">. c #48BE42",
",. c #40B443",
"<. c #43AC54",
"1. c #45A759",
"2. c #44B154",
"3. c #47B35D",
"4. c #49B95F",
"5. c #4CBB63",
"6. c #46C541",
"7. c #49C645",
"8. c #45CE41",
"9. c #49C945",
"0. c #48C14C",
"q. c #4DCE4A",
"w. c #51CC4E",
"e. c #47D441",
"r. c #4AD544",
"t. c #47D842",
"y. c #4BD945",
"u. c #4ED14C",
"i. c #4EDA4A",
"p. c #51D24E",
"a. c #51DC4D",
"s. c #50CC55",
"d. c #53D652",
"f. c #58D055",
"g. c #55DC53",
"h. c #58DA57",
"j. c #5FD65D",
"k. c #57DC5A",
"l. c #5ADD5A",
"z. c #56D55C",
"x. c #52E44D",
"c. c #55E153",
"v. c #58E356",
"b. c #5BE45C",
"n. c #5DE85D",
"m. c #4FC56A",
"M. c #52C665",
"N. c #52C865",
"B. c #50C36A",
"V. c #53C96B",
"C. c #5BDC61",
"Z. c #67DD66",
"A. c #5EE561",
"S. c #5FE961",
"D. c #61E664",
"F. c #62EA65",
"G. c #66EC69",
"H. c #69EE6C",
"J. c #67F06A",
"K. c #6AF16D",
"L. c #6FE370",
"P. c #6FEF73",
"I. c #79EA7B",
"U. c #6CF271",
"Y. c #71F376",
"T. c #7AF57C",
"R. c #83EF86",
"E. c #83F686",
"W. c #8DF692",
"Q. c #98F79E",
"!. c #95F89B",
"~. c #9FF9A5",
"^. c #A8FAAF",
"/. c #A3F8A9",
"(. c #ACFAB3",
"). c #B1FBB7",
"_. c #B6FBBD",
"`. c #BCFBC4",
"'. c #C0FBC7",
"]. c None",
/* pixels */
"m.B.B.5.3.<.:.=.*.W I I S A V A V V D Z J J K L ^ ` ` | | | 7.>.f.j.Z.L.I.R.W.Q./.(.`.`.`.`.`.`.`.).^.~.!.W.E.T.U.K.J.n.x.x.x.x.",
"V.5.=.U x e w 4 3 2 2 2 : > : > > 8 8 0 0 y i m V C B G ~ ^ ` | | | @.9.f.h.l.Z.D.P.P.P.Y.Y.Y.Y.K.H.S.S.n.v.x.a.y.y.%.%.$.$.t.t.",
"B.5.=.b f e 4 3 2 * 2 - : : : > > 6 8 q t t i p m M B G H ^ / ) | | | 7.p.g.l.b.G.G.H.U.Y.Y.U.K.J.G.S.S.v.x.x.i.y.y.%.X.X.$.$.t.",
"V.5.=.b f w 4 5 2 2 - : : : : : 2 8 8 9 0 t i p m M Z G H ^ ^ ( ) | | 7.w.d.c.Z.A.G.H.U.U.U.U.K.J.G.S.n.v.c.i.y.y.%.$.$.X.$.$.t.",
"V.4.=.U f w 4 3 2 : 2 : : : : > 2 6 6 9 0 u y i m B B G ! ^ / / | | | 7.q.d.l.l.D.G.P.K.U.U.U.K.J.G.S.n.v.x.x.y.t.t.t.$.X.$.t.t.",
"V.4.=.v f w 4 5 2 1 - - : : : 2 > 6 6 8 0 t y i m M B G ! ! / ( | | @.%.q.d.l.b.D.G.H.P.U.U.U.K.J.S.n.v.v.x.x.i.t.t.$.$.X.$.$.t.",
"V.4.=.v f w 4 5 2 2 : - : : > ; > 3 8 q 0 y t m m M B G H ^ / ( / | @.7.q.d.l.l.A.G.K.K.U.U.U.K.J.J.n.n.v.x.x.y.t.%.$.X.X.X.$.t.",
"V.4.=.v f w 3 3 2 , - : : ; > 2 > 6 8 q 0 t y m m M B G H ! / / ) | @.7.q.d.l.A.A.G.H.K.U.U.K.K.J.S.S.n.v.x.i.y.t.t.$.$.X.X.t.t.",
"B.5.=.b f e 4 3 2 2 : : : : : > > > 8 9 q t y i m M G G H ^ / ( ) | | @.q.d.h.l.D.G.H.H.U.U.K.K.J.S.S.v.c.g.i.y.y.%.#.X.X.X.%.%.",
"B.3.;.b f 4 3 5 2 , 1 ; - : ; 2 > > 8 8 q t t i m m M G G H ^ / ) | | | 9.p.d.h.Z.A.D.G.G.G.G.A.A.A.v.c.a.i.y.t.%.%.+.X.X.X.$.t.",
"f d 4 4 s 4 1 1 & & # # + + # + + + % % = = = * * ; ; ; : > > 2 > 6 7 9 r u h p p x k k V j V V V V i i i i y y m y y y y y y y ",
"].].].].1.&.c a $ @ . .           X X X O O + + % & * * * : 2 3 4 4 e h h x z z P I I I P P A j j j j h r r 0 0 q t p F ].].].].",
"].].].].5.-.n s < $ $ @ @ . o o O O + % % % = * * ; ; ; 2 3 8 9 r r h x k S I R W W *.Q Q Q R R R R D D C C m V m C Z R ].].].].",
"].].].].M.<.T f 5 1 & # # + # % + % % % = * ; ; 2 2 3 8 8 q 0 u p k S R ' ,.0.s.z.k.A.A.A.A.A.A.g.i.i.e.8.8.O... . .O.8.].].].].",
"].].].].M.<.T l 4 5 1 & & & % % % = = = ; ; ; 3 > 3 9 0 y m B ! / / | >.w.f.h.l.D.G.G.H.G.A.A.S.v.c.i.i.t.t.O.X...X.#.t.].].].].",
"].].].].M.<.W l w 5 2 1 - * & * = ; ; ; > 2 > 8 q t m M B B ! / | | | >.w.d.l.D.D.G.H.L.G.G.S.S.v.c.a.i.y.t.O.X.X.X.$.t.].].].].",
"].].].].M.2.*.l e 4 2 1 : - - - = - : > > > 7 t t m m B B H ~ ( ] } >.9.w.d.h.D.D.G.H.H.J.J.S.n.v.c.a.y.r.e.#.X.X.X.O.y.].].].].",
"].].].].M.2.*.z e 4 5 : - - - - ; ; ; > > 7 q t y m M B B H ~ ( ] [ @.9.p.h.h.D.F.G.H.H.J.G.F.n.b.c.a.y.y.e.%.O.X.X.e.t.].].].].",
"].].].].M.<.T z e 4 3 2 - - - : : : > > 7 7 t t y m M B H ~ ~ ( ] } | 9.p.h.l.D.D.H.G.H.J.F.F.n.n.c.a.i.y.e.t.X.X.X.%.t.].].].].",
"].].].].N.<.*.z e 4 3 : : - - - : : > > 6 7 q p m m M B B ~ ^ ) ] } 6.9.p.d.l.D.G.G.H.J.J.J.F.n.n.c.a.i.t.t.%.X.X.X.%.t.].].].].",
"].].].].N.2.W z e 4 3 2 2 - * 2 ; > > > 6 q t t m m m B B ! ~ ( ] } @.9.p.g.l.D.D.H.H.H.J.G.n.n.c.c.x.y.t.t.O.X.X.X.X.y.].].].].",
"].].].].N.2.*.z e 4 3 2 - 2 ; ; ; ; > > 6 q q p y m M B H ~ ~ ( ] } 6.9.w.g.l.D.D.G.H.H.J.J.F.n.v.x.a.i.t.t.e.X.X.X.t.y.].].].].",
"].].].].N.2.W z d 4 3 2 2 - ; : : > > > 7 7 t t m m B B H ! ~ ) ] } @.9.p.d.l.A.D.G.H.H.G.F.S.n.n.c.a.i.e.e.8.X.X.X.X.y.].].].].",
"].].].].N.<.W z e 4 3 2 : - - - : : > 6 7 q t t m m B B B ! ~ ( ] [ @.9.p.d.l.D.D.G.G.H.J.G.F.n.c.a.a.y.e.e.O.O.X.X.%.y.].].].].",
"].].].].N.2.*.z e 4 5 : 2 - : : : : > 6 6 q t t p m M B H ~ ~ ( ] } @.7.u.g.b.b.D.H.G.H.G.F.n.S.v.x.a.y.y.%.#.+.X.X.t.t.].].].].",
"].].].].N.2.W z e 4 3 2 : - - : ; > > > 7 q t t m m M B B H ^ ) ] [ @.7.u.d.h.D.D.F.G.H.G.G.S.v.v.g.a.y.e.%.#.X.X.X.X.t.].].].].",
"].].].].N.2.W z e 4 3 2 2 - - - ; > > > 7 q t t y m M B H ~ ~ / ] [ @.7.p.d.h.D.D.G.G.H.G.F.n.n.v.c.i.y.y.%.#.X.X.X.$.t.].].].].",
"].].].].N.<.W z e w 3 2 : - : : ; ; > 6 7 7 t t m m M B B ! ^ ( ] [ @.9.q.d.h.A.D.G.G.G.G.F.F.n.v.a.a.a.e.e.#.X.X.X.t.t.].].].].",
"].].].].N.2.W z e 4 3 2 2 - - : : > ; 6 7 7 t t y m M B B ! ~ ( ) [ @.7.u.h.l.b.D.G.G.H.G.F.n.b.v.c.i.y.r.e.#.X.X.X.$.t.].].].].",
"].].].].N.2.*.z e 4 3 2 : - : - : : > 6 7 7 t y m m M B B ! ~ / ) | @.9.q.d.h.b.D.F.G.G.G.F.n.b.v.a.a.y.e.%.#.+.X.X.%.t.].].].].",
"].].].].N.2.W z e 4 3 2 : - : : : : > > 7 7 t t y m M B B ~ ~ ( [ [ @.@.w.d.k.D.D.F.G.G.G.F.S.b.c.x.i.y.e.%.$.X.X.X.%.t.].].].].",
"].].].].N.2.W z e 8 3 2 2 - - : ; > > 6 7 7 t t p m M B H ~ ~ ( ) [ @.7.q.d.l.C.S.F.G.J.F.F.S.b.c.g.i.y.e.%.$.X.X.X.$.t.].].].].",
"].].].].N.2.W z e 4 3 2 : - - - : : > > 7 7 t t y m M B B ! ~ / ) | @.@.u.d.l.b.D.G.G.D.F.F.n.b.c.c.i.y.e.%.#.....+.%.e.].].].].",
"].].].].N.2.W z e 4 4 2 2 - 2 - : : > 6 7 7 t y m m M B B H ~ / ) [ @.8.u.p.h.b.D.D.G.G.F.F.n.b.c.i.i.r.e.e.#.+.....$.t.].].].].",
"].].].].N.2.W z e 4 3 2 : - : : : > > > 6 7 t t y m B B H ~ ~ ( ) [ @.7.q.d.h.b.D.D.G.G.F.F.S.b.c.a.i.y.e.#.+.+.X.X.$.r.].].].].",
"].].].].N.2.W z e 4 5 2 : : : - ; > > > 7 7 t t y m B B B H ~ / ] [ @.@.q.f.h.A.D.D.G.F.F.F.b.b.c.g.i.y.r.#.+.+...X.#.t.].].].].",
"].].].].N.2.W z e 4 3 2 : - - - ; : > > 7 7 t t y m M B B ~ ~ / ] [ | 6.q.p.k.b.A.F.G.G.G.S.n.v.k.i.i.r.e.#.+.....X.%.t.].].].].",
"].].].].N.2.W z e 4 3 2 : : : - : > > 6 7 7 t t y m M B B ~ / ( ] [ @.6.q.p.h.b.A.G.G.D.S.S.b.b.g.x.i.r.e.e.+.....X.$.e.].].].].",
"].].].].N.2.W z e 4 3 2 2 : - - ; > > > 7 7 t y y m M B B ~ ^ / ] ] | 6.q.d.h.l.A.D.F.F.G.S.n.v.c.a.i.r.e.#.+.+...X.%.e.].].].].",
"].].].].N.2.W z e 4 3 2 : : - - ; ; > > 7 7 q t y m M B B ! ^ / ] ] | 6.q.d.h.b.A.F.G.S.G.S.b.c.c.a.i.e.e.#.#... .X.#.t.].].].].",
"].].].].N.2.W z e 4 4 2 2 : - : ; > > > 6 7 t t y m M B B B ^ / ] ] @.6.q.p.h.b.A.D.G.F.F.S.b.b.d.a.i.r.9.%.+...X...$.t.].].].].",
"].].].].N.2.W z e 4 3 : : : - : ; > > > 6 7 t t y m M B B ~ ~ ^ ] ] | 6.q.p.h.l.A.D.F.F.F.S.b.v.a.a.i.r.%.%.+.....X.%.e.].].].].",
"].].].].N.2.W z e 4 3 2 - : - : ; > > > 7 7 t t p m M B B ! ~ / ] | | 6.9.d.h.l.A.F.G.D.F.S.b.c.c.a.i.r.%.%.+.....X.X.e.].].].].",
"].].].].N.2.*.z e 4 3 2 2 - : - : > > > 7 7 t t p m m M ! ! ~ / _ ] @.6.q.u.h.l.A.D.D.F.S.S.b.c.a.a.i.r.%.%.+.X.....$.t.].].].].",
"].].].].N.2.W z e 4 3 2 : - : - ; : > 6 6 7 t t y m M B B B ~ / _ ] | 6.q.p.d.b.A.D.F.F.F.S.b.k.g.a.i.r.e.@.+. ...X.#.e.].].].].",
"].].].].N.2.W z e 4 3 2 : : - - : > > > 6 7 t y p m M B ! ! ~ / ) [ | 6.q.p.h.l.A.D.D.F.A.S.b.b.a.a.i.r.e.#.+.+.....#.t.].].].].",
"].].].].N.2.W z e 4 3 2 : : ; : : > > > 7 7 t t p m M B B ~ ~ ^ ) ] | 6.9.p.h.l.A.D.F.F.F.S.b.c.d.a.r.r.#.#.+.....X.#.e.].].].].",
"].].].].N.2.W z e 4 3 2 : : ; : : ; > > 6 7 t t y m M B B ! ~ / ] ] | 6.9.p.h.l.C.D.D.F.A.S.b.c.a.a.i.%.e.#.O.......#.t.].].].].",
"].].].].N.2.W z s 4 3 2 : : : : ; > > > 6 7 t t p m m B B ! ~ / ] ] @.@.9.p.d.l.A.A.F.F.S.b.b.c.g.a.i.%.%.#.+.| +. .%.%.].].].].",
"].].].].N.2.*.z e 4 3 2 : : - : ; > > > 7 7 q y p m M B B ! ~ / ( [ } 6.q.u.h.l.A.D.A.A.F.b.b.g.a.a.i.r.%.+.+.+. .+.%.%.].].].].",
"].].].].N.2.W z e 4 3 2 : : : - ; > > > 7 7 t t y m m B B ~ ~ ^ ( ] } @.9.p.h.k.A.A.F.F.S.S.b.c.d.i.r.8.$.+.+.+. . .+.%.].].].].",
"].].].].N.2.W z e 4 3 2 - - : : : : > > 6 7 t t p m M B B H ~ / ] ] | 6.9.u.d.k.A.A.S.F.A.b.b.c.a.i.i.r.+.+.+. . . .+.%.].].].].",
"].].].].N.2.W z e 4 3 2 - - : : ; > > > 7 7 t t y p M B B B ~ / ] [ | 6.9.u.h.l.C.A.D.F.S.A.l.g.a.a.r.r.%.#. . . .X.#.e.].].].].",
"].].].].N.2.W z e 4 3 2 2 : : - ; > > > 7 7 t t y m m B B ! ~ / / ] } 6.9.p.d.l.A.A.F.A.S.S.b.g.a.a.i.%.%.#.+.|  . .#.e.].].].].",
"].].].].N.2.W z e 4 4 : - : - : : > > > 7 7 t t y m m B B ! ~ ^ ] ] } 6.9.p.d.k.A.A.A.A.S.b.b.g.d.a.r.q.#.#.+.+. ...#.e.].].].].",
"].].].].N.2.*.z e 4 3 5 - : - - ; ; > 6 7 7 t t p m M B B ~ ~ ^ _ ] } @.9.q.d.k.A.A.A.F.S.b.c.c.a.i.r.%.%.@.+.|  ...#.r.].].].].",
"].].].].N.2.W z e 4 3 2 : : : : > ; > > 7 q t t y m m N G H ! ^ _ ] } 6.9.u.d.k.b.D.D.D.b.b.b.g.a.i.r.r.%.+.+. .....#.e.].].].].",
"].].].].N.2.W z e 4 4 2 : : - - ; ; > 6 7 7 t t y m M N Z H ~ _ ] ] } @.9.q.d.k.l.A.D.S.D.b.v.g.a.p.r.r.%.+... . ...+.e.].].].].",
"].].].].N.2.W z e 4 4 2 : - - - ; > > 6 6 7 t t i m m C G H ! ^ _ ] } 6.9.u.d.k.l.D.D.S.b.b.v.g.a.p.r.%.@.#.+.[  .X.+.e.].].].].",
"].].].].N.2.W z e 4 2 2 : - - 2 ; ; > > 6 q q t y m M M G H ^ ^ _ ] } 6.9.u.d.h.l.A.A.D.D.b.b.g.a.a.q.%.%.+.+. . ...+.e.].].].].",
"].].].].N.2.W z e 4 3 2 : : - - > : > > 7 7 t t i m m M G G ! ^ ] ] } 6.9.q.d.h.l.D.D.S.S.S.v.g.a.i.8.r.%.@.+...[ ..+.e.].].].].",
"].].].].N.2.W z e 4 3 2 : : - 2 ; ; > 6 6 7 q y i m m N G H ! / / ] } @.9.q.d.g.l.l.S.D.A.l.v.g.a.i.r.%.#.#... . ...+.e.].].].].",
"].].].].M.2.;.z e 9 2 2 2 : - 2 ; > > 6 6 7 t t i m M N G H ! / / ] } @.9.q.d.g.l.A.A.A.l.b.v.a.a.i.q.%.#.#.X. . . .+.e.].].].].",
"].].].].M.2.W z e 4 3 2 : - - - ; > ; 6 7 q q y i m m M G G ! ^ _ [ } @.9.q.p.k.l.A.A.S.S.b.l.g.a.i.q.%.#.+... . . .+.e.].].].]."
};
