/* XPM */
static char *result[] = {
/* columns rows colors chars-per-pixel */
"64 64 164 2 ",
"   c #020100",
".  c #0B0201",
"X  c #0A0904",
"o  c #130100",
"O  c #1A0200",
"+  c #100F05",
"@  c #111104",
"#  c #191905",
"$  c #19180D",
"%  c #2C1406",
"&  c #251E0B",
"*  c #2C2B0C",
"=  c #3A200C",
"-  c #2C2B17",
";  c #232114",
":  c #302D11",
">  c #343314",
",  c #3C3B14",
"<  c #333319",
"1  c #3E3E21",
"2  c #4B2F17",
"3  c #4D4D14",
"4  c #5C5B19",
"5  c #676618",
"6  c #555420",
"7  c #594934",
"8  c #61503B",
"9  c #72563A",
"0  c #795C3F",
"q  c #666521",
"w  c #7B7A47",
"e  c #917C61",
"r  c #8D8304",
"t  c #878008",
"y  c #948902",
"u  c #988E01",
"i  c #9D9301",
"p  c #9B910A",
"a  c #A19503",
"s  c #A59A03",
"d  c #A99E05",
"f  c #A59108",
"g  c #A59B08",
"h  c #AB9E08",
"j  c #ACA104",
"k  c #AEA20A",
"l  c #B1A605",
"z  c #B6AA06",
"x  c #BAAE06",
"c  c #B2A60B",
"v  c #BAA20F",
"b  c #B6A90B",
"n  c #BAAD0C",
"m  c #BEB206",
"M  c #BEB10B",
"N  c #BEB110",
"B  c #A7A52A",
"V  c #B5B326",
"C  c #C2B604",
"Z  c #C5BA05",
"A  c #CCBE07",
"S  c #C2B50B",
"D  c #C6B90A",
"F  c #CABD0B",
"G  c #C3B610",
"H  c #C7B911",
"J  c #CBBD12",
"K  c #D3BA13",
"L  c #CFC306",
"P  c #CEC10B",
"I  c #D2C507",
"U  c #D3C50D",
"Y  c #D8C60A",
"T  c #D6C90C",
"R  c #D9CC0E",
"E  c #DFD10D",
"W  c #CEC012",
"Q  c #CDC118",
"!  c #D3C414",
"~  c #D8C517",
"^  c #D7C814",
"/  c #DBCC15",
"(  c #DBCC19",
")  c #D3C61C",
"_  c #DFD011",
"`  c #E3D40E",
"'  c #E7D90F",
"]  c #E8D90F",
"[  c #E7CE1B",
"{  c #EBCE1B",
"}  c #E3D415",
"|  c #E7D813",
" . c #EBDC14",
".. c #E3D31B",
"X. c #EAD51D",
"o. c #EBDB1C",
"O. c #F0D71B",
"+. c #F2DF1C",
"@. c #EFE114",
"#. c #F3E516",
"$. c #F7E816",
"%. c #F9EC16",
"&. c #F3E31C",
"*. c #FAE61D",
"=. c #F6E919",
"-. c #FBEC1D",
";. c #FEF31D",
":. c #CFC722",
">. c #ECDC22",
",. c #E2DF36",
"<. c #F4E324",
"1. c #F9E523",
"2. c #FCEC24",
"3. c #F8E728",
"4. c #FDEC2B",
"5. c #F1E42D",
"6. c #FEF424",
"7. c #FFF925",
"8. c #FFF32B",
"9. c #FFFA2C",
"0. c #FCEC35",
"q. c #F2E43A",
"w. c #FFF332",
"e. c #FFFA34",
"r. c #FFF23B",
"t. c #FFFB3B",
"y. c #8B8A4B",
"u. c #B8B747",
"i. c #9F8161",
"p. c #AA9579",
"a. c #B99D7B",
"s. c #FFF445",
"d. c #FFFB43",
"f. c #FFF44B",
"g. c #FFFB4B",
"h. c #FFF553",
"j. c #FFFC54",
"k. c #FFF55B",
"l. c #FFFB5C",
"z. c #FFF663",
"x. c #FFFC64",
"c. c #FFF66A",
"v. c #FFFC6B",
"b. c #FFF673",
"n. c #FFFB73",
"m. c #FFF67D",
"M. c #FFFC7B",
"N. c #C0AA8E",
"B. c #C9B499",
"V. c #CEBFAA",
"C. c #FFF783",
"Z. c #FFFB84",
"A. c #FFFC8B",
"S. c #FFFC94",
"D. c #FFFD98",
"F. c #D6C8B3",
"G. c #DDD0BC",
"H. c #E6DBCA",
"J. c #EEE3D2",
"K. c #F7F0E5",
"L. c #F9F5ED",
"P. c #FDFBF8",
"I. c #FBF8F3",
"U. c None",
/* pixels */
"U.U.U.U.U.U.U.U.U.U.U.U.U.U.U.U.U.U.U.U.U.U.U.U.U.U.U.U.U.U.U.U.U.U.U.U.U.U.U.U.U.U.U.U.U.U.U.U.U.U.U.U.U.U.U.U.U.U.U.U.U.U.U.U.",
"U.U.U.U.U.U.U.U.U.U.U.U.U.U.U.U.U.U.U.U.U.U.U.U.U.U.U.U.U.U.U.U.U.U.U.U.U.U.U.U.U.U.U.U.U.U.U.U.U.U.U.U.U.U.U.U.U.U.U.U.U.U.U.U.",
"U.U.U.U.U.U.U.U.U.U.U.U.U.U.U.U.U.U.U.U.U.U.U.U.U.U.U.U.U.U.U.q.U.U.U.U.U.U.U.U.U.U.U.U.U.U.U.U.U.U.U.U.U.U.U.U.U.U.U.U.U.U.U.U.",
"U.U.U.U.U.U.U.U.U.U.U.U.U.U.U.U.U.U.U.U.U.U.U.U.U.U.U.U.U.U.U.z.0.U.U.U.U.U.U.U.U.U.U.U.U.U.U.U.U.U.U.U.U.U.U.U.U.U.U.U.U.U.U.U.",
"U.U.U.U.U.U.U.U.U.U.U.U.U.U.U.U.U.U.U.U.U.U.U.U.U.U.U.U.U.U.3.b.f.v U.U.U.U.U.U.U.U.U.U.U.U.U.U.U.U.U.U.U.U.U.U.U.U.U.U.U.U.U.U.",
"U.U.U.U.U.U.U.U.U.U.U.U.U.U.U.U.U.U.U.U.U.U.U.U.U.U.U.U.U.U.s.m.h.{ U.U.U.U.U.U.U.U.U.U.U.U.U.U.U.U.U.U.U.U.U.U.U.U.U.U.U.U.U.U.",
"U.U.U.U.U.U.U.U.U.U.U.U.U.U.U.U.U.U.U.U.U.U.U.U.U.U.U.U.U.2.h.m.k.1.f U.U.U.U.U.U.U.U.U.U.U.U.U.U.U.U.U.U.U.U.U.U.U.U.U.U.U.U.U.",
"U.U.U.U.U.U.U.U.U.U.U.U.U.U.U.U.U.U.U.U.U.U.U.U.U.U.U.U.U.r.c.C.z.0.K U.U.U.U.U.U.U.U.U.U.U.U.U.U.U.U.U.U.U.U.U.U.U.U.U.U.U.U.U.",
"U.U.U.U.U.U.U.U.U.U.U.U.U.U.U.U.U.U.U.U.U.U.U.U.U.U.U.U.*.s.m.C.z.r.X.f U.U.U.U.U.U.U.U.U.U.U.U.U.U.U.U.U.U.U.U.U.U.U.U.U.U.U.U.",
"U.U.U.U.U.U.U.U.U.U.U.U.U.U.U.U.U.U.U.U.U.U.U.U.U.U.U.U.4.h.m.C.c.r.<.S U.U.U.U.U.U.U.U.U.U.U.U.U.U.U.U.U.U.U.U.U.U.U.U.U.U.U.U.",
"U.U.U.U.U.U.U.U.U.U.U.U.U.U.U.U.U.U.U.U.U.U.U.U.U.U.U.*.0.k.C.C.c.f.3.~ p U.U.U.U.U.U.U.U.U.U.U.U.U.U.U.U.U.U.U.U.U.U.U.U.U.U.U.",
"U.U.U.U.U.U.U.U.U.U.U.U.U.U.U.U.U.U.U.U.U.U.U.U.U.U.U.4.s.c.C.C.b.h.w.X.S U.U.U.U.U.U.U.U.U.U.U.U.U.U.U.U.U.U.U.U.U.U.U.U.U.U.U.",
"U.U.U.U.U.U.U.U.U.U.U.U.U.U.U.U.U.U.U.U.U.U.U.U.U.U.-.0.h.b.A.C.b.j.r.<.~ g U.U.U.U.U.U.U.U.U.U.U.U.U.U.U.U.U.U.U.U.U.U.U.U.U.U.",
"U.U.U.U.U.U.U.U.U.U.U.U.U.U.U.U.U.U.U.U.U.U.U.U.U.U.8.r.z.m.A.C.n.z.d.8...M U.U.U.U.U.U.U.U.U.U.U.U.U.U.U.U.U.U.U.U.U.U.U.U.U.U.",
"U.U.U.U.U.U.U.U.U.U.U.U.U.U.U.U.U.U.U.U.U.U.U.U.U.-.0.f.c.C.A.A.n.z.d.w.>.W g U.U.U.U.U.U.U.U.U.U.U.U.U.U.U.U.U.U.U.U.U.U.U.U.U.",
"U.U.U.U.U.U.U.U.U.U.U.U.U.U.U.U.U.U.U.U.U.U.U.U.O.2.w.k.b.A.S.A.M.x.g.e.<.( x U.U.U.U.U.U.U.U.U.U.U.U.U.U.U.U.U.U.U.U.U.U.U.U.U.",
"U.U.U.U.U.U.U.U.U.U.U.U.U.U.U.U.U.U.U.U.U.U.U.U.-.w.s.z.C.S.S.Z.M.v.g.t.4.X.J s U.U.U.U.U.U.U.U.U.U.U.U.U.U.U.U.U.U.U.U.U.U.U.U.",
"U.U.U.U.U.U.U.U.U.U.U.U.U.U.U.U.U.U.U.U.U.U.U.o.4.r.k.c.Z.S.S.A.M.x.j.d.8.>.( b U.U.U.U.U.U.U.U.U.U.U.U.U.U.U.U.U.U.U.U.U.U.U.U.",
"U.U.U.U.U.U.U.U.U.U.U.U.U.U.U.U.U.U.U.U.U.U.U.-.w.f.z.C.S.D.S.A.M.v.j.d.t.3.>.W j U.U.U.U.U.U.U.U.U.U.U.U.U.U.U.U.U.U.U.U.U.U.U.",
"U.U.U.U.U.U.U.U.U.U.U.U.U.U.U.U.U.U.U.U.U.U.&.w.s.l.n.A.S.D.S.A.M.v.l.g.t.w.<...H g U.U.U.U.U.U.U.U.U.U.U.U.U.U.U.U.U.U.U.U.U.U.",
"U.U.U.U.U.U.U.U.U.U.U.U.U.U.U.U.U.U.U.U.U.+.4.s.k.b.Z.S.D.D.S.Z.M.v.x.j.d.e.8.<...H b U.U.U.U.U.U.U.U.U.U.U.U.U.U.U.U.U.U.U.U.U.",
"U.U.U.U.U.U.U.U.U.U.U.U.U.U.U.X.+.*.2.8.w.r.s.k.n.Z.S.S.D.D.A.Z.M.n.x.j.g.d.t.w.5.o.>.>.o.( / ~ Q U.U.U.U.U.U.U.U.U.U.U.U.U.U.U.",
"U.U.U.U.U.U.U.U.U.[ O.+.4.8.w.r.r.s.s.f.k.l.z.n.A.A.S.D.D.S.S.Z.M.n.x.l.j.g.d.t.w.w.w.w.w.8.8.8.4.3.<.o./ W J U.U.U.U.U.U.U.U.U.",
"U.U.U.5.0.r.r.s.s.s.f.f.h.h.h.k.k.z.c.c.b.C.Z.S.S.D.D.D.S.S.A.M.n.n.v.x.l.j.g.d.t.t.e.t.t.r.t.t.e.r.e.w.w.8.0.8.4.3.>.>.) U.U.U.",
"U.U.r.s.f.l.z.z.z.z.c.c.b.b.n.m.m.C.Z.A.A.S.S.S.D.D.D.S.S.A.Z.M.n.n.v.x.l.g.g.g.d.d.d.d.d.t.d.t.t.t.t.t.r.e.e.r.w.0.3.5...( U.U.",
"U.U.` 6.w.s.f.h.l.z.c.b.n.M.C.Z.A.S.A.S.S.D.D.S.D.S.; - A.Z.Z.M.n.v.x.x.- ; j.g.g.d.d.d.d.d.d.t.t.t.e.e.9.8.4.3.1.>.>.( H k U.U.",
"U.U.U.Y $.7.e.r.s.h.j.l.z.b.M.Z.A.S.S.D.S.D.S.S.S.w e 7 y.Z.M.n.n.n.x.u.8 p.q g.g.g.g.d.d.d.t.d.t.e.e.w.8.4.1.<.>...J G h U.U.U.",
"U.U.U.U.I  .-.7.9.t.d.f.j.x.v.n.M.Z.A.A.A.S.A.A.Z.$ L.V.1 M.M.n.v.v.v.4 F.I.X g.g.g.g.d.d.d.t.t.e.e.w.4.4.<.>.( ! G n g U.U.U.U.",
"U.U.U.U.U.A ' $.6.7.9.t.d.h.l.x.v.n.n.M.M.Z.Z.M.Z.X P.G.< n.n.v.v.x.x., H.I.X g.g.g.d.d.d.t.t.e.e.8.4.3.o.( ~ J G b g U.U.U.U.U.",
"U.U.U.U.U.U.Z E  .-.7.9.e.t.d.j.l.l.v.v.v.n.n.n.M.  K.N.< n.v.v.x.l.l., B.J.  g.d.d.d.t.t.t.e.e.4.3.o...( ! G n c s U.U.U.U.U.U.",
"U.U.U.U.U.U.U.Z T ] %.;.7.9.e.t.g.j.j.l.x.x.v.v.v.  a.9 > v.x.l.l.l.l., 0 i.  d.d.t.t.e.e.9.8.2.o.X...! J S b k s U.U.U.U.U.U.U.",
"U.U.U.U.U.U.U.U.Z I ` @.-.;.7.e.t.d.g.j.l.l.l.x.x.  2 % : l.l.l.j.j.g., % =   d.t.t.e.e.8.3.1.o.../ ! D M b k s U.U.U.U.U.U.U.U.",
"U.U.U.U.U.U.U.U.U.Z I E ] =.;.7.e.e.d.d.g.j.j.j.l.  O o > l.j.j.j.g.g., o O   t.e.9.8.2.1.*. .X./ W G n b d s U.U.U.U.U.U.U.U.U.",
"U.U.U.U.U.U.U.U.U.U.Z L E ' &.;.7.9.e.t.d.g.g.j.j.  o   , d.g.d.d.d.t.3   .   9.8.8.4.3.<.| ( ^ W M n c d s U.U.U.U.U.U.U.U.U.U.",
"U.U.U.U.U.U.U.U.U.U.U.Z L E ] =.6.7.9.e.t.t.d.d.d.      4 d.d.d.t.t.t.5       9.8.6.3.+.o.o.! W S x c s s U.U.U.U.U.U.U.U.U.U.U.",
"U.U.U.U.U.U.U.U.U.U.U.U.m L E ] #.;.9.e.e.t.t.d.d.*     B t.t.t.t.t.t.V     # 8.2.3.&.o.X./ W S n l g s U.U.U.U.U.U.U.U.U.U.U.U.",
"U.U.U.U.U.U.U.U.U.U.U.U.U.m I ' @.-.7.9.e.e.e.t.t.,.  X t.t.t.e.e.e.e.e.@   :.2.1.&.o.>...~ H N c g s U.U.U.U.U.U.U.U.U.U.U.U.U.",
"U.U.U.U.U.U.U.U.U.U.U.U.U.U.Z T  .=.6.8.9.9.e.e.t.t.t.t.t.e.e.e.e.e.e.e.9.8.8.2.1.&.o.o./ W N v j a U.U.U.U.U.U.U.U.U.U.U.U.U.U.",
"U.U.U.U.U.U.U.U.U.U.U.U.U.U.U.I | #.;.8.9.9.e.e.e.e.e.t.e.t.e.9.9.9.9.9.8.6.2.3.&.>.o...^ H n k p U.U.U.U.U.U.U.U.U.U.U.U.U.U.U.",
"U.U.U.U.U.U.U.U.U.U.U.U.U.U.U.U.| #.;.7.9.9.e.e.e.e.e.e.e.9.9.9.7.9.9.8.8.6.2.1.1.o...( ! H n g U.U.U.U.U.U.U.U.U.U.U.U.U.U.U.U.",
"U.U.U.U.U.U.U.U.U.U.U.U.U.U.U.U.#.-.6.7.8.9.9.e.9.e.9.9.9.9.8.7.7.6.2.6.6.1.*.<.o.o.../ ! G b g U.U.U.U.U.U.U.U.U.U.U.U.U.U.U.U.",
"U.U.U.U.U.U.U.U.U.U.U.U.U.U.U._ %.;.6.7.9.9.9.9.9.9.9.9.7.7.7.2.2.2.2.2.1.1.*.&.o.o.../ ! H b g t U.U.U.U.U.U.U.U.U.U.U.U.U.U.U.",
"U.U.U.U.U.U.U.U.U.U.U.U.U.U.U.@.%.;.7.7.9.9.e.9.9.9.8.7.7.6.2.*.*.*.*.1.<.&.&.o.o.| ( / J H b h r U.U.U.U.U.U.U.U.U.U.U.U.U.U.U.",
"U.U.U.U.U.U.U.U.U.U.U.U.U.U.U.%.;.7.7.7.9.9.9.9.8.7.7.6.1.-.&.&.o.&.&.o.&.o.&. .o.} ..^ ! H n h y U.U.U.U.U.U.U.U.U.U.U.U.U.U.U.",
"U.U.U.U.U.U.U.U.U.U.U.U.U.U.U.%.;.7.7.7.9.9.9.9.7.2.2.*.&.&. .| | | o.| o.o.o.o.....} ( J H n k u U.U.U.U.U.U.U.U.U.U.U.U.U.U.U.",
"U.U.U.U.U.U.U.U.U.U.U.U.U.U.U.;.7.7.7.9.9.9.7.6.6.-.&. .| | } _ _ _ _ _ _ } ......_ / ^ ! J G c p U.U.U.U.U.U.U.U.U.U.U.U.U.U.U.",
"U.U.U.U.U.U.U.U.U.U.U.U.U.U.U.;.;.7.9.9.9.7.7.2.*.o.| } _ R R U ! U U T ^ / / _ _ / / ( ! J G b s U.U.U.U.U.U.U.U.U.U.U.U.U.U.U.",
"U.U.U.U.U.U.U.U.U.U.U.U.U.U.U.;.7.7.7.7.7.6.2.#. .} R U U P F F F F F P P U U T ( / ( ! ! J G b h U.U.U.U.U.U.U.U.U.U.U.U.U.U.U.",
"U.U.U.U.U.U.U.U.U.U.U.U.U.U. .;.7.7.7.7.6.=.@.| _ U P F S S m m m m M Z Z F P P P ! ! ! W J H N h r U.U.U.U.U.U.U.U.U.U.U.U.U.U.",
"U.U.U.U.U.U.U.U.U.U.U.U.U.U.%.;.7.7.;.-.=.| _ / P P M m m l l j j l x m M m S D D F F P J J H N c y U.U.U.U.U.U.U.U.U.U.U.U.U.U.",
"U.U.U.U.U.U.U.U.U.U.U.U.U.U.%.;.7.;.-.=. ._ U P D m n l j a i j s i j j x m m m S C D D F H H G c u U.U.U.U.U.U.U.U.U.U.U.U.U.U.",
"U.U.U.U.U.U.U.U.U.U.U.U.U.U.;.7.6.-.&.| _ U P M n l j i i a j g j l j a i j x m m S m S S D D N n a U.U.U.U.U.U.U.U.U.U.U.U.U.U.",
"U.U.U.U.U.U.U.U.U.U.U.U.U.U.;.;.2.#.| E P F m z j i i s s U.U.U.U.U.g j j i s l z m M m m S S S N g U.U.U.U.U.U.U.U.U.U.U.U.U.U.",
"U.U.U.U.U.U.U.U.U.U.U.U.U.U.;.;.#.| / P D m k s i i j U.U.U.U.U.U.U.U.U.s j s i s l z x z m M S G c U.U.U.U.U.U.U.U.U.U.U.U.U.U.",
"U.U.U.U.U.U.U.U.U.U.U.U.U. .;.&.| R F C b j i i s U.U.U.U.U.U.U.U.U.U.U.U.U.U.j s i j l x z x M N b U.U.U.U.U.U.U.U.U.U.U.U.U.U.",
"U.U.U.U.U.U.U.U.U.U.U.U.U.#.-. .R F m k i i a U.U.U.U.U.U.U.U.U.U.U.U.U.U.U.U.U.U.j s a j z l x n N p U.U.U.U.U.U.U.U.U.U.U.U.U.",
"U.U.U.U.U.U.U.U.U.U.U.U.U.$.@.R F x j i a U.U.U.U.U.U.U.U.U.U.U.U.U.U.U.U.U.U.U.U.U.U.j i j l z b n g U.U.U.U.U.U.U.U.U.U.U.U.U.",
"U.U.U.U.U.U.U.U.U.U.U.U.U.$.E F x a i U.U.U.U.U.U.U.U.U.U.U.U.U.U.U.U.U.U.U.U.U.U.U.U.U.g a s l l b c U.U.U.U.U.U.U.U.U.U.U.U.U.",
"U.U.U.U.U.U.U.U.U.U.U.U.U.| F l i p U.U.U.U.U.U.U.U.U.U.U.U.U.U.U.U.U.U.U.U.U.U.U.U.U.U.U.U.g i d j b U.U.U.U.U.U.U.U.U.U.U.U.U.",
"U.U.U.U.U.U.U.U.U.U.U.U.U.P s p U.U.U.U.U.U.U.U.U.U.U.U.U.U.U.U.U.U.U.U.U.U.U.U.U.U.U.U.U.U.U.U.i a d U.U.U.U.U.U.U.U.U.U.U.U.U.",
"U.U.U.U.U.U.U.U.U.U.U.U.U.U.U.U.U.U.U.U.U.U.U.U.U.U.U.U.U.U.U.U.U.U.U.U.U.U.U.U.U.U.U.U.U.U.U.U.U.U.U.U.U.U.U.U.U.U.U.U.U.U.U.U.",
"U.U.U.U.U.U.U.U.U.U.U.U.U.U.U.U.U.U.U.U.U.U.U.U.U.U.U.U.U.U.U.U.U.U.U.U.U.U.U.U.U.U.U.U.U.U.U.U.U.U.U.U.U.U.U.U.U.U.U.U.U.U.U.U.",
"U.U.U.U.U.U.U.U.U.U.U.U.U.U.U.U.U.U.U.U.U.U.U.U.U.U.U.U.U.U.U.U.U.U.U.U.U.U.U.U.U.U.U.U.U.U.U.U.U.U.U.U.U.U.U.U.U.U.U.U.U.U.U.U.",
"U.U.U.U.U.U.U.U.U.U.U.U.U.U.U.U.U.U.U.U.U.U.U.U.U.U.U.U.U.U.U.U.U.U.U.U.U.U.U.U.U.U.U.U.U.U.U.U.U.U.U.U.U.U.U.U.U.U.U.U.U.U.U.U."
};
