/* XPM */
static char *result[] = {
/* columns rows colors chars-per-pixel */
"64 64 166 2 ",
"   c #0F0A07",
".  c #15100A",
"X  c #261B11",
"o  c #261C11",
"O  c #261C12",
"+  c #271C12",
"@  c #271D12",
"#  c #281D12",
"$  c #281E13",
"%  c #291E13",
"&  c #2A1F14",
"*  c #3A2C1B",
"=  c #3C2C1B",
"-  c #432313",
";  c #452414",
":  c #462414",
">  c #462514",
",  c #472514",
"<  c #482514",
"1  c #492514",
"2  c #4C2716",
"3  c #4C2816",
"4  c #4D2816",
"5  c #502916",
"6  c #502917",
"7  c #512917",
"8  c #512A17",
"9  c #522B17",
"0  c #532B18",
"q  c #542B18",
"w  c #552B18",
"e  c #552C18",
"r  c #562C18",
"t  c #562D19",
"y  c #5A2F1A",
"u  c #5B2F1A",
"i  c #5C2F1A",
"p  c #5C301A",
"a  c #5D301A",
"s  c #5E301B",
"d  c #5E311B",
"f  c #5F311B",
"g  c #60321B",
"h  c #61321B",
"j  c #6D381F",
"k  c #6D391F",
"l  c #6E391F",
"z  c #6F391F",
"x  c #473621",
"c  c #473623",
"v  c #6F3A20",
"b  c #703A20",
"n  c #713A20",
"m  c #723B20",
"M  c #733B21",
"N  c #733C21",
"B  c #743C21",
"V  c #804225",
"C  c #834425",
"Z  c #854526",
"A  c #874626",
"S  c #884627",
"D  c #894727",
"F  c #8C4828",
"G  c #8C4B2A",
"H  c #914B2A",
"J  c #924B2A",
"K  c #904D2B",
"L  c #924C2A",
"P  c #934C2A",
"I  c #934D2A",
"U  c #944C2A",
"Y  c #944D2A",
"T  c #944D2B",
"R  c #94502D",
"E  c #95512E",
"W  c #98532F",
"Q  c #9C512D",
"!  c #9D512D",
"~  c #A2532D",
"^  c #A3542E",
"/  c #A6552F",
"(  c #A85730",
")  c #AF5B32",
"_  c #B05B32",
"`  c #B05B33",
"'  c #B15C33",
"]  c #B25C33",
"[  c #B35D33",
"{  c #B45E34",
"}  c #B55E34",
"|  c #B65F34",
" . c #B75F34",
".. c #B75F35",
"X. c #B85F35",
"o. c #B86035",
"O. c #B96035",
"+. c #B06338",
"@. c #B6673B",
"#. c #B86438",
"$. c #B86439",
"%. c #B86539",
"&. c #BD683B",
"*. c #BE683B",
"=. c #BE693B",
"-. c #BC693C",
";. c #BD6B3D",
":. c #C06C3D",
">. c #C06C3E",
",. c #C16D3E",
"<. c #C36C3E",
"1. c #C36D3E",
"2. c #C46D3E",
"3. c #C46E3E",
"4. c #C46E3F",
"5. c #DC733F",
"6. c #DD733F",
"7. c #CD7B49",
"8. c #DD7340",
"9. c #DE7340",
"0. c #DE7440",
"q. c #DF7440",
"w. c #D17E4C",
"e. c #D17F4C",
"r. c #E07440",
"t. c #E07540",
"y. c #E17540",
"u. c #E07541",
"i. c #E17541",
"p. c #E27541",
"a. c #E27641",
"s. c #D2804D",
"d. c #D58551",
"f. c #D68450",
"g. c #D88854",
"h. c #DF935D",
"j. c #FB9154",
"k. c #FA9254",
"l. c #FB9254",
"z. c #FA9255",
"x. c #FB9255",
"c. c #FA9355",
"v. c #FB9355",
"b. c #FA9356",
"n. c #FB9356",
"m. c #FF9355",
"M. c #FA9456",
"N. c #FB9456",
"B. c #FA9556",
"V. c #FF9455",
"C. c #FF9456",
"Z. c #FF9556",
"A. c #FF9557",
"S. c #DF9B64",
"D. c #E49760",
"F. c #EC9960",
"G. c #EC9A61",
"H. c #ED9D63",
"J. c #EDA56B",
"K. c #EEAB70",
"L. c #EFAF73",
"P. c #F3AB70",
"I. c #FDB373",
"U. c #FFB374",
"Y. c #FFB778",
"T. c None",
/* pixels */
"T.:.m.m.m.m.m.m.m.m.m.m.m.m.m.m.m.m.m.m.m.m.m.V.V.V.V.V.V.Y.T.T.T.T.-.C.C.C.C.C.C.C.C.C.Z.Z.Z.Z.Z.Z.Z.Z.Z.Z.Z.Z.Z.Z.Z.Z.A.A.U.T.",
"i K #.#.#.#.#.#.#.#.#.#.#.#.$.$.#.$.$.$.$.$.$.$.$.$.$.$.$.w.G.c x s G %.%.%.%.%.%.%.%.%.%.%.%.%.%.%.%.%.%.%.%.%.%.%.%.%.%.%.7.F.",
"5 B P P P P P P P P P P P P P P I P I P I P P I I Y Y Y Y ..i.# # 8 m Y Y U Y Y Y Y Y Y Y Y Y Y Y Y Y Y Y T Y Y Y Y Y Y T Y ] a.",
"5 B P P P P P P P P P P P P P P P P P I I I P I I P I I Y  .i.@ @ 8 m Y Y Y Y Y Y Y Y Y Y Y Y Y Y Y Y Y Y Y Y Y Y Y Y Y Y Y ] a.",
"5 B P P P P P P P P P P P P P P P P P P P P P P P U P Y I  .i.@ @ 8 m Y Y Y Y Y Y Y Y Y Y Y Y Y Y Y Y Y Y Y Y Y Y T Y Y Y Y ] a.",
"5 B P P P P P P P P P P P P P P P P P P P P P P P P P P I  .i.@ @ 8 m Y Y Y U Y Y Y Y Y Y Y Y Y Y Y Y Y Y Y Y Y Y Y Y Y Y Y ] a.",
"5 B P P P P P P P P P P P P P P P P P P P P P P P P I P P  .i.@ @ 8 m I Y Y Y Y Y Y Y Y Y Y Y Y Y Y Y Y Y Y Y Y Y Y Y Y Y Y ] a.",
"5 B P P P P P P P P P P P P P P P P P P P P P P P P P P P  .i.@ @ 8 m I I P Y Y Y Y Y Y Y Y Y Y Y Y Y Y Y Y Y Y Y Y Y Y Y Y ] p.",
"5 B P P P P P P P P P P P P P P P P P P P P P P P P P P P  .i.@ @ 8 m P P I P I I I Y Y Y U Y Y Y Y Y Y Y Y Y Y Y Y Y Y Y Y ] p.",
"5 B P P P P P P P P P P P P P P P P P P P P P P P P P P P  .u.@ @ 8 m P P P P I P Y P I Y I Y U I U Y Y Y Y Y Y Y Y Y Y Y Y ] p.",
"5 B P P P P P P P P P P P P P P P P P P P P P P P P P P P  .t.@ @ 8 m P P P P P I P I P P P P Y I I Y I Y Y Y Y Y Y Y Y Y Y ] p.",
"5 B P P P P P P P P P P P P P P P P P P P P P P P P P P P  .t.@ @ 8 m P P P P P P P P P P P U P Y P Y U U U U Y Y Y Y Y Y Y ] p.",
"5 B P P P P P P P P P P P P P P P P P P P P P P P P P P P  .t.@ @ 8 m P P P P P P P P P P P P P P I P I P Y Y P Y U Y U U Y ' p.",
"5 B P P P P P P P P P P P P P P P P P P P P P P P P P P P  .t.@ @ 8 m P P P P P P P P P P P P P P P P P P P P Y U Y Y Y U Y ' p.",
"5 B P P P P P P P P P P P P P P P P P P P P P P P P P P P  .t.@ @ 8 m P P P P P P P P P P P P P P P P P P I I P P I I P U Y ' p.",
"5 B P P P P P P P P P P P P P P P P P P P P P P P P P P P  .t.@ @ 8 m P P P P P P P P P P P P P P P P P P P P P P P P P P P ' p.",
"5 B P P P P P P P P P P P P P P P P P P P P P P P P P P P  .t.@ @ 7 m P P P P P P P P P P P P P P P P P P P P P P P P P P P ' i.",
"5 B P P P P P P P P P P P P P P P P P P P P P P P P P P P | t.@ @ 8 m P P P P P P P P P P P P P P P P P P P P P P P P P P I ' i.",
", p j j j j j j j j j j j j j j j j j j k j j k j j j j j Z Q @ @ > u k k j k j k k k k k k k k k k k k k k k k k k k k k k V ! ",
"T., 4 4 4 4 4 4 4 4 4 4 4 4 4 4 4 4 4 4 4 4 4 4 4 4 4 4 4 t @ @ @ @ ; 4 4 4 4 4 4 4 4 4 4 4 4 4 4 4 4 4 4 4 4 4 4 4 4 4 4 4 r T.",
"T.. O @ @ @ @ @ @ @ @ @ @ @ @ @ @ @ @ @ @ @ @ @ @ @ @ @ @ @ @ @ @ @ @ @ @ @ @ @ @ @ @ @ @ @ @ @ @ @ @ @ @ @ @ @ @ @ @ @ @ # = T.",
"T.. O @ @ @ @ @ @ @ @ @ @ @ @ @ @ @ @ @ @ @ @ @ @ @ @ @ @ @ @ @ @ @ @ @ @ @ @ @ @ @ @ @ @ @ @ @ @ @ @ @ @ @ @ @ @ @ @ @ @ # = T.",
"T.>.j.j.j.j.j.j.l.l.l.l.l.P.& @ @ # +.l.l.l.l.x.x.x.x.x.x.x.v.v.v.v.v.v.v.v.v.v.v.v.v.v.v.L.% @ @ # ;.n.N.N.N.N.N.N.N.N.N.N.I.T.",
"s R &.&.&.&.&.&.&.&.&.&.&.s.D.@ @ u G &.&.&.&.&.&.&.*.&.&.*.*.*.*.*.=.=.=.=.=.=.=.=.=.=.=.f.h.@ @ f R =.=.=.=.=.=.=.=.=.=.=.e.H.",
"5 B L P P P P P P P P P P [ i.@ @ 5 z P P P P P P P P P P P P P P P P P P P P P P P P P P O.8.@ @ 8 B P P P P P P P P P P P ' y.",
"5 B L P P P P P P P P P P [ i.@ @ 5 z P P P P P P P P P P P P P P P P P P P P P P P P P P O.6.@ @ 8 B P P P P P P P P P P P ' y.",
"5 B L L L L L P P P P P P [ i.@ @ 5 z P P P P P P P P P P P P P P P P P P P P P P P P P P O.6.@ @ 8 B P P P P P P P P P P P ' y.",
"5 B L L L L P L P L P L P [ i.@ @ 6 z P P P P P P P P P P P P P P P P P P P P P P P P P P O.8.@ @ 8 B P P P P P P P P P P P ' y.",
"5 B L L L L L L L L L P P [ i.@ @ 5 l P P P P P P P P P P P P P P P P P P P P P P P P P P O.6.@ @ 8 B P P P P P P P P P P P ' y.",
"5 B L L L L L L L L L L L [ i.@ @ 6 l P P P P P P P P P P P P P P P P P P P P P P P P P P o.6.@ @ 8 B P P P P P P P P P P P ' y.",
"5 B L L L L L L L L L L L [ i.@ @ 5 z P L P P P P P P P P P P P P P P P P P P P P P P P P o.6.@ @ 8 B P P P P P P P P P P P ' t.",
"5 B L L L L L L L L L L L [ i.@ @ 5 l L P P L P P P P P P P P P P P P P P P P P P P P P P o.6.@ @ 8 B P P P P P P P P P P P ' t.",
"5 B L L L L L L L L L L L [ i.@ @ 6 l L P L P P P P P P P P P P P P P P P P P P P P P P P o.6.@ @ 8 B P P P P P P P P P P P ' t.",
"5 B L L L L L L L L L L L [ i.@ @ 5 l L L L L L L L P L P P P P P P P P P P P P P P P P P o.6.@ @ 8 B P P P P P P P P P P P ` t.",
"5 B L L L L L L L L L L L [ i.@ @ 5 l L L L L L L L L P L P P P P P P P P P P P P P P P P o.6.@ @ 8 B P P P P P P P P P P P _ r.",
"5 B L L L L L L L L L L L [ i.@ @ 5 l L L L L L L L L L L L L P P P P P L P P P P P P P P o.6.@ @ 8 B P P P P P P P P P P P _ r.",
"5 B L L L L L L L L L L L [ i.@ @ 5 l L L L L L L L L L L L L L L P L L P P P P P P P P P X.6.@ @ 8 B P P P P P P P P P P P _ r.",
"5 B L L L L L L L L L L L [ y.@ @ 5 l L L L L L L L L L L L L L L L L L L L L P P P L P P o.6.@ @ 8 B P P P P P P P P P P P _ r.",
"5 B L L L L L L L L L L L [ u.+ @ 5 l L L L L L L L L L L L L L L L L L L L L L L L P P P o.5.@ @ 8 B P P P P P P P P P P P _ r.",
"5 B L L L L L L L L L L L [ t.@ @ 5 l L L L L L L L L L L L L L L L L L L L L L L L L P L X.5.@ @ 8 B P P P P P P P P P P P _ r.",
", a v v v v v v v v v v v A ^ + @ : y v v v v v v v v v v v v v v v v v v v v v v v v v v D ! @ @ , s v v v v v v v b v b v C ~ ",
"T.: 3 3 3 3 3 3 3 3 3 3 3 e @ @ @ @ - 3 3 3 3 3 3 3 3 3 3 3 3 3 3 3 3 3 3 3 3 3 3 3 3 3 3 0 @ @ @ @ ; 3 3 3 3 3 3 3 3 3 3 3 q T.",
"T.. o + + @ @ + + @ + + @ + + @ @ @ @ @ + @ @ @ @ @ @ @ @ @ @ + @ @ @ @ @ @ @ @ @ + @ @ @ @ @ @ @ @ @ @ @ @ @ @ @ @ @ @ @ # = T.",
"T.. O + + + + @ + + @ + @ + @ + @ + @ @ + @ + @ @ + @ @ @ @ @ @ @ @ @ @ @ @ @ @ @ @ @ + @ @ @ @ @ @ @ @ @ @ @ @ @ @ @ @ @ @ * T.",
"T.,.k.k.k.k.k.k.z.z.z.z.z.z.z.z.z.z.z.z.c.c.c.c.c.c.c.c.c.K.$ @ @ @ @.c.c.b.b.b.b.M.M.M.M.M.M.M.M.M.M.M.M.M.M.M.M.M.M.M.M.B.I.T.",
"h W <.<.<.1.1.1.1.1.1.1.1.1.1.1.1.1.1.1.1.1.1.1.1.1.2.2.2.g.S.@ + f E 2.2.2.2.2.2.2.3.2.3.3.3.3.4.4.3.4.4.4.4.4.4.4.4.4.4.4.d.J.",
"5 B L L L L L L L L L L L L L L L L L L L L L L L L L L L } 0.@ @ 6 n L L L L L L L L L L L L L L L L L L L L L L L L L L L _ q.",
"5 B L J L L L L L L L L L L L L L L L L L L L L L L L L L } 0.+ + 6 n L L L L L L L L L L L L L L L L L L L L L L L L L L L _ q.",
"5 B J L J L L L L L L L L L L L L L L L L L L L L L L L L } 9.+ + 6 n L L L L L L L L L L L L L L L L L L L L L L L L L L L _ q.",
"5 N L L L L L L L L J L L L L L L L L L L L L L L L L L L } 9.+ @ 6 n L L L L L L L L L L L L L L L L L L L L L L L L L L L _ q.",
"5 N L J J L L L L L L L L L L L L L L L L L L L L L L L L } 9.+ @ 6 n L L L L L L L L L L L L L L L L L L L L L L L L L L L _ q.",
"5 M J J J J J J J L J L J L L L L L L L L L L L L L L L L } 9.+ + 6 n L L L L L L L L L L L L L L L L L L L L L L L L L L L _ q.",
"5 M J J J J J J J J J J L L L J L L L L L L L L L L L L L } 9.+ + 6 n L L L L L L L L L L L L L L L L L L L L L L L L L L L _ q.",
"5 M J J J L L L J J J J J L L L J L L L L L L L L L L L L } 9.@ + 6 n L L L L L L L L L L L L L L L L L L L L L L L L L L L _ q.",
"5 M H J J J J J J J J J J J L J L J L J J L L L L L L L L } 8.+ + 6 n L L L L L L L L L L L L L L L L L L L L L L L L L L L ) q.",
"5 M H J J J J J J L J J J J J J J L J J L L L J J L L L L } 8.+ + 6 n L L L L L L L L L L L L L L L L L L L L L L L L L L L ) q.",
"5 M H H J J J J J J J J J J J J J J J L L J J L J L L L L } 8.+ + 6 n L L L L L L L L L L L L L L L L L L L L L L L L L L L ) q.",
"5 M H H H J J H H J H J J J J J J J J J J J J J J J J L L } 8.+ + 6 n L L L L L L L L L L L L L L L L L L L L L L L L L L L ) q.",
"5 M H H H H J H H J H J J J H J J J J J J J J J J J J L J } 8.+ + 6 n J L L L L L L L L L L L L L L L L L L L L L L L L L L ) q.",
"5 M H H H H H H H H H H H J J J H J J J J J J J J J J J L { 6.+ + 6 n L J L L L L L L L L L L L L L L L L L L L L L L L L L ) q.",
"5 M H H H H H H H H H H H J H J J J J J J J J J J J J J J { 6.+ + 6 n J L L L L L L J L L L L L L L L L L L L L L L L L L L ) 9.",
"5 M H H H H H H H H H H H H H H H H H J H J J J J J J J J { 6.o X 6 n J J L J J L J L J L J L L L L L L L L L L L L L L L L ) 0.",
"< g N N N N N N N N N N N N N N N N N N N N N N N N N N N F (     1 d N N N N N N N N N N N N N N N N N N N N N N N N N N N S / ",
"T.; 2 2 2 2 2 2 2 2 2 2 2 2 2 2 2 2 2 2 2 2 2 2 2 2 2 2 2 w T.T.T.T.; 2 2 2 2 2 2 2 2 2 2 2 2 2 2 2 2 2 2 2 2 2 2 2 2 2 2 2 9 T."
};
