/* XPM */
static char *result[] = {
/* columns rows colors chars-per-pixel */
"64 64 252 2 ",
"   c #1A0406",
".  c #5B080B",
"X  c #4D0B0C",
"o  c #69181C",
"O  c #552C1E",
"+  c #592E1E",
"@  c #502719",
"#  c #5D311F",
"$  c #4B2619",
"%  c #5B3123",
"&  c #573327",
"*  c #5A3C33",
"=  c #572E20",
"-  c #633523",
";  c #6A3A28",
":  c #743B29",
">  c #67332B",
",  c #6A241F",
"<  c #5F4239",
"1  c #77442A",
"2  c #68473B",
"3  c #774437",
"4  c #76502D",
"5  c #5E4E4B",
"6  c #775B57",
"7  c #6C524D",
"8  c #7A625B",
"9  c #67605E",
"0  c #796765",
"q  c #7A7174",
"w  c #605369",
"e  c #933437",
"r  c #D70000",
"t  c #D40C0D",
"y  c #E90303",
"u  c #FD0303",
"i  c #FD0A0B",
"p  c #F40505",
"a  c #FF1414",
"s  c #FF1D1D",
"d  c #F61819",
"f  c #EC1416",
"g  c #C53033",
"h  c #FF2323",
"j  c #FF2B2B",
"k  c #FF2827",
"l  c #FF3334",
"z  c #FF3C3C",
"x  c #F7383B",
"c  c #EC3038",
"v  c #CF1F21",
"b  c #854937",
"n  c #8A5436",
"m  c #926C35",
"M  c #987639",
"N  c #8B6632",
"B  c #AA6836",
"V  c #F33E43",
"C  c #895346",
"Z  c #965949",
"A  c #8D5A53",
"S  c #8B5347",
"D  c #AB554B",
"F  c #87655A",
"G  c #99645B",
"H  c #98754F",
"J  c #B5674A",
"K  c #A76858",
"L  c #B26955",
"P  c #B16951",
"I  c #996863",
"U  c #86726A",
"Y  c #9B7666",
"T  c #8B7877",
"R  c #957A76",
"E  c #846B6A",
"W  c #B26E64",
"Q  c #A9796A",
"!  c #B67A69",
"~  c #A97974",
"^  c #AA726B",
"/  c #D04F57",
"(  c #FF4242",
")  c #FD4A4B",
"_  c #F65357",
"`  c #C97A5A",
"'  c #D07D5B",
"]  c #C67B63",
"[  c #F66E71",
"{  c #F45E66",
"}  c #A8863B",
"|  c #AB8B45",
" . c #AB8D4C",
".. c #A78643",
"X. c #AF904E",
"o. c #AC8F51",
"O. c #AE9051",
"+. c #B0904C",
"@. c #97857B",
"#. c #8F807D",
"$. c #B5836C",
"%. c #AA8275",
"&. c #B88775",
"*. c #AD8B75",
"=. c #AC9162",
"-. c #C5846A",
";. c #C68B74",
":. c #C7937B",
">. c #D89779",
",. c #D48F6B",
"<. c #E29174",
"1. c #D7A86D",
"2. c #E1B360",
"3. c #F7DA5A",
"4. c #FEE95A",
"5. c #DBCD6F",
"6. c #EDD16E",
"7. c #F8E56B",
"8. c #F7E876",
"9. c #EBE070",
"0. c #E8CC32",
"q. c #5C6AAC",
"w. c #073BDD",
"e. c #023AE7",
"r. c #003DF2",
"t. c #1545D2",
"y. c #2752CA",
"u. c #0544E9",
"i. c #0346F3",
"p. c #1354F2",
"a. c #1A63F7",
"s. c #3864DA",
"d. c #3049A5",
"f. c #8A7D85",
"g. c #D07380",
"h. c #7689A5",
"j. c #8C8D8E",
"k. c #878589",
"l. c #978787",
"z. c #8D8D92",
"x. c #8B8796",
"c. c #9D9294",
"v. c #93949B",
"b. c #9A9799",
"n. c #8D9097",
"m. c #A38989",
"M. c #A49393",
"N. c #A3999C",
"B. c #A7989A",
"V. c #B38D89",
"C. c #B7A98F",
"Z. c #979AA5",
"A. c #8397B5",
"S. c #A29DA3",
"D. c #AA9DA1",
"F. c #B19BAB",
"G. c #9DA1AC",
"H. c #9FA3B1",
"J. c #A4A2AB",
"K. c #ABA4AB",
"L. c #AAA4A9",
"P. c #A4A6B2",
"I. c #ACAAB4",
"U. c #AAADBB",
"Y. c #A6A9B7",
"T. c #B3ADB6",
"R. c #AEB2BF",
"E. c #B3B4BC",
"W. c #B8B5BA",
"Q. c #BAA7A2",
"!. c #CA9985",
"~. c #D49D85",
"^. c #D09695",
"/. c #EE8C8F",
"(. c #DBA58C",
"). c #D9A488",
"_. c #D8A592",
"`. c #CCAA92",
"'. c #E7A889",
"]. c #E5AD96",
"[. c #EBB498",
"{. c #F5B899",
"}. c #EFAB8A",
"|. c #D99CAA",
" X c #CDB3AD",
".X c #E9BAA3",
"XX c #F6BDA5",
"oX c #EEABB4",
"OX c #F49CA5",
"+X c #F0CC93",
"@X c #E8C7A8",
"#X c #F9C7A8",
"$X c #F7D5AC",
"%X c #FDCBB2",
"&X c #FED4B4",
"*X c #FDDBB4",
"=X c #FEDBBB",
"-X c #FBD6B7",
";X c #EED7B0",
":X c #FCE3BC",
">X c #FAE7BD",
",X c #CEC593",
"<X c #AEB2C1",
"1X c #B1B6C4",
"2X c #BDBDC2",
"3X c #BABECB",
"4X c #B4B9C9",
"5X c #B9BED1",
"6X c #D1BAC8",
"7X c #F0BBC5",
"8X c #BDC2D4",
"9X c #BFC5D9",
"0X c #BEC1CC",
"qX c #C4C5CB",
"wX c #CBCACE",
"eX c #C4C2C6",
"rX c #D7C7CA",
"tX c #CCCCD4",
"yX c #C4CADC",
"uX c #C4C8D7",
"iX c #D6D6DB",
"pX c #D1CFD7",
"aX c #F1D0D3",
"sX c #FEECC3",
"dX c #FEF4CA",
"fX c #FFF3C8",
"gX c #E7E0DE",
"hX c #C7CEE2",
"jX c #CCD2E4",
"kX c #CCD4E9",
"lX c #D9DEEC",
"zX c #D4D8E7",
"xX c #D6DDF2",
"cX c #D7D4EA",
"vX c #E9DCE6",
"bX c #DBE2F5",
"nX c #DDE5FA",
"mX c #D6E2F9",
"MX c #DEE0EA",
"NX c #E7E6EA",
"BX c #F6EAEA",
"VX c #F3F1EF",
"CX c #E5ECFD",
"ZX c #E6E9F5",
"AX c #ECF2FE",
"SX c #ECF2F9",
"DX c #F2F5FD",
"FX c #F5FAFE",
"GX c #FDFDFE",
"HX c #F6F4F5",
"JX c #F0EDF0",
"KX c None",
/* pixels */
"KXKXKXKXKXKXKXKXKXKXKXKXKXKXKXKXKXKXKXKXGXHX%X[ ( z l z z ( ( ) KXKXKXKXKXKXKXKXKXKXKXKXKXKXKXKXKXKXKXKXKXKXKXKXKXKXKXKXKXKXKXKX",
"KXKXKXKXKXKXKXKXKXKXKXKXKXKXKXKXGXGXGXGXBXOX) s h h s s s h h h k j z ( KXKXKXKXKXKXKXKXKXKXKXKXKXKXKXKXKXKXKXKXKXKXKXKXKXKXKXKX",
"KXKXKXKXKXKXKXKXKXKXKXKXKXGXGXGXGXGXGXGXaX) k k j j j j j k k k k h h h j z ) KXKXKXKXKXKXKXKXKXKXKXKXKXKXKXKXKXKXKXKXKXKXKXKXKX",
"KXKXKXKXKXKXKXKXKXKXKXFXGXGXGXGXGXGXGXGXaX) j l l l l l l l j j j k h h s s k z KXKXKXKXKXKXKXKXKXKXKXKXKXKXKXKXKXKXKXKXKXKXKXKX",
"KXKXKXKXKXKXKXKXKXFXGXGXGXGXGXGXGXGXGXGXBX/.) l V V z z z z l l l l j k k s s s j ( KXKXKXKXKXKXKXKXKXKXKXKXKXKXKXKXKXKXKXKXKXKX",
"KXKXKXKXKXKXKXSXFXGXGXFXGXGXGXFXFXFXGXFXGXHX[ z z V z ( ( z ( l l l l j k h s a a s l /.KXKXKXKXKXKXKXKXKXKXKXKXKXKXKXKXKXKXKXKX",
"KXKXKXKXKXKXSXDXFXFXFXFXFXDXFXDXDXFXDXDXFXDXoX{ V z ( ( ( ( z z l l l j k k h a i i s V [ KXKXKXKXKXKXKXKXKXKXKXKXKXKXKXKXKXKXKX",
"KXKXKXKXKXOXaXJXFXDXAXAXAXAXAXAXAXAXAXAXAXDXDXoX) ( z ( z z z l l l l j k h h a i u i a /.GXKXKXKXKXKXKXKXKXKXKXKXKXKXKXKXKXKXKX",
"KXKXKXKX) V { vXAXAXCXCXCXCXCXCXCXCXCXCXCXCXCXZXaX{ z l l l l l l k k h h s a a u u u u [ GXDXKXKXKXKXKXKXKXKXKXKXKXKXKXKXKXKXKX",
"KXKXKX_ V h V vXAXCXCXCXnXnXnXnXnXnXnXZXnXnXZXbXZXMX/.V j h h h s s s a a a a i u u u u <.FXGXKXKXKXKXKXKXKXKXKXKXKXKXKXKXKXKXKX",
"KXKXKX( l s V 6XnXnXnXmXxXxXmXbXbXxXbXxXlXlXlXlXxXlXlXrX/.x a i i i u u p u p p u u i l OXGXFXSXKXKXKXKXKXKXKXKXKXKXKXKXKXKXKXKX",
"KXKX) l h i h /.cXnXmXmXmXxXxXzXzXzXkXkXzXjXjXzXjXjXiXjXjXpX|._ d y f p p p p y p d _ aXSXHXFXFXDXKXKXKXKXKXKXKXKXKXKXKXKXKXKXKX",
"KX) V h a u a { 6XmXxXxXkXkXkXhXhXhXhXyXyXyXyXuXtXuXtXuXtXtXtXtXwX6X X/.{ / { /.oXlXgXVXSXSXSXFXDXKXKXKXKXKXKXKXKXKXKXKXKXKXKXKX",
"KX( j a u u i V oXxXkXkXkXhXhX9X9X8X8X5X8X3X3X3X3X3X3X3X0XqX0X0XqXuXwXwXwXpXwXiXiXMXMXNXNXJXVXSXSXZXKXKXKXKXKXKXKXKXKXKXKXKXKXKX",
"_ z h i u u p c |.mXkXhXhX9X9X5X5X4X1X1X<X1XR.E.<XE.E.E.E.E.E.E.2X2X0X0XqXwXwXwXtXiXiXgXMXNXNXSXJXZXKXKXKXKXKXKXKXKXKXKXKXKXKXKX",
") l a u u p y V |.kXhX9X9X5X5X4X1X<XU.U.Y.Y.Y.I.P.P.P.K.P.I.I.I.I.I.I.T.W.E.0X2XeXwXtXiXiXgXNXNXZXZXKXKXKXKXKXKXKXKXKXKXKXKXKXKX",
") j i u p p p V |.hX9X8X5X4X1X<XU.U.U.P.P.K.P.S.J.J.S.Z.S.S.N.S.S.J.L.L.L.I.E.W.W.2XeXwXwXiXiXgXNXNXKXKXKXKXKXKXKXKXKXKXKXKXKXKX",
"z k i p p y f / |.9X8X4X<X<XU.U.Y.K.P.J.S.S.S.S.Z.b.b.N.M.b.b.b.c.c.b.b.b.S.S.L.L.W.W.2XeXwXiXgXMXMXKXKXKXKXKXKXKXKXKXKXKXKXKXKX",
"z h i p y y v g. X5X4XE.<XU.Y.K.K.S.S.S.S.S.N.b.c.l.@.#.#.#.R R #.@.l.j.c.c.b.b.C.G.I.W.2XeXwXiXiXMXKXKXKXKXKXKXKXKXKXKXKXKXKXKX",
"z h i y y y v ^.2X1XE.T.Y.J.L.J.S.D.S.B.c.l.l.T U 0 8 8 F Y Q *.=.%.H F F #.@.l.b.b.b.L.W.W.eXwXiXzXKXKXKXKXKXKXKXKXKXKXKXKXKXKX",
"z h p y r r v Q.1XT.I.I.L.F.D.D.B.B.M.l.T E 6 6 G %.&.~.].[.@X@X#X;X;X@X1.@.8 U @.@.b.b.L.T.W.eXpXiXKXKXKXKXKXKXKXKXKXKXKXKXKXKX",
"V h i y r r v F.T.T.K.L.L.D.B.M.M.l.T 0 6 F %.&._.[.V.@.b..X#X*X*X>X>X:X*X;X:.8 8 #.@.c.N.L.W.2XqXtXKXKXKXKXKXKXKXKXKXKXKXKXKXKX",
"KXh i r r t g F.I.L.F.D.B.B.M.m.@.E 7 F ~ V._.[.#X#X@.9 N.`..X*X:XsX>XsX>XC.q :.=.8 @.c.c.S.K.W.0XKXKXKXKXKXKXKXKXKXKXKXKXKXKXKX",
"KXs d r r g V.K.F.L.L.B.B.M.m.T F 7 ^ !._..X.X#X%X&X`.0 9 @..X=X:XsXsXfXdX*.7 C.@.8 #.@.c.N.L.W.2XKXKXKXKXKXKXKXKXKXKXKXKXKXKXKX",
"KXj s y r D T.P.F.D.D.B.M.m.R 6 6 Q !.].oXXX%X-XaX=X=X@XC..X=X=X:XsXsXfXsX`.U *.!.V.T @.c.b.L.W.KXKXKXKXKXKXKXKXKXKXKXKXKXKXKXKX",
"KXKXKXf / B.T.F.S.B.B.M.V.f.E 7 F ~..XXX%X%X-X-X&X=X=X=X-X*X&X*X*X:X>X>X>X>X>X;X$X XR @.c.N.K.KXKXKXKXKXKXKXKXKXKXKXKXKXKXKXKXKX",
"KXKXKXW.T. X@XQ.D.B.B.M.m.T 0 F ~ ].XXXX%X%XaX%X=X%X%X#X[.XXXX#X%X%X*X*X*X*X:X:XsX.X@.l.M.N.K.KXKXKXKXKXKXKXKXKXKXKXKXKXKXKXKXKX",
"KXKXKXKX~.~.(.@X XB.Q.M.f.T 6 I ^.XX%X%X#X%X#X%X%X#XXX[.;.Z K &.~.'.[.{.#X+X#X$X:X@XV.l.M.N.KXKXKXKXKXKXKXKXKXKXKXKXKXKXKXKXKXKX",
"KXKXKX(.!.-.-.(..X X).m.l.T 6 R ^.{.{.#XXXXXXXXXXX[.].[.~.e X X X . , , o : L {.*X@X XM.c.KXKXKXKXKXKXKXKXKXKXKXKXKXKXKXKXKXKXKX",
"KXKXKX:.$.;.~._.[.[.:.V.l.T 0 R ^.{.{.{.{.{.{.].[.].].'.(.&       X . . . b ).{.#X#X XKXKXKXKXKXKXKXKXKXKXKXKXKXKXKXKXKXKXKXKXKX",
"KXKXKX!.&.!._.(._.).).+X`.f.E E *.].}.}.}.}.}.'.'.~.~.~.~.K e o o o . . o P {.{.+X{.KXKXKXKXKXKXKXKXKXKXKXKXKXKXKXKXKXKXKXKXKXKX",
"KXKXKXKX!.(.(.).!.:.:.'._.N.j.T m.]./.<.<.<.<.<.~.!.:.:.:.!.W D / / e , -.}.}.}.[.[.KXKXKXKXKXKXKXKXKXKXKXKXKXKXKXKXKXKXKXKXKXKX",
"KXKXKXKXKXKX(.!.&.&.$.).+X$X>X;X@X].~.,.' ` ` ] $.! ! ! -.-.;.,.<.'.1.'.<.>.>.'.(.KXKXKXKXKXKXKX_.].{.KXKXKXKXKXKXKXKXKXKXKXKXKX",
"KXKXKXKXKXKXKX&.$.! $.&.).[.#X*X=X:X=X$X'.$.D Z A A A K P ` -.,.,.,.<.,.<.>.,.>.KXKXKXKXKXKX^.].{.$XKXKXKXKXKXKXKXKXKXKXKXKXKXKX",
"KXKXKXKXKXKXKXKXKXKX$.$.$.&.:.).[.@X#X*X:X;X$XF.d.d.w n B B J ` ` -.' ' ` -.-.KXKXKXKXKXKX;.~.{.#X*XKXKXKXKXKXKXKXKXKXKXKXKXKXKX",
"KXKXKXKXKXKXKXKXKXKXKXKXKX%.$.*.%.:.).[.#X#X%X<Xt.e.w.q.0.2.).(.).,.` J J KXKXKXKXKXKX#X#X].>.>.'.'.].[.[.KXKXKXKXKXKXKXKXKXKXKX",
"KXKXKXKXKXKXKXKXKXKXKXKXKXKXKX@.~ ~ %.V.~._.^.q.i.r.y.k.3.6.+X>X>X>X>X;X[.1.1.[.+X%X$X*X$X#X'.;.Q $.KXKXKXKXKXKXKXKXKXKXKXKXKXKX",
"KXKXKXKXKXKXKXKXKXKXKXKXKXKXKXKXKXKXR ~ ~ m.s.t.r.r.h.5.4.}.@XsXfXdXfXdXsX>X+X2.+X$X#X{.[.).!.KXKXKXKXKXKXKXKXKXKXKXKXKXKXKXKXKX",
"KXKXKXKXKXKXKXKXKXKXKXKXKXKXKXKXKXKXKXm.f.t.u.i.i.t.b.4.3.6.$X>XfXdXdXdXdXfX=X[.2.1.).&.KXKXKXKXKXKXKXKXKXKXKXKXKXKXKXKXKXKXKXKX",
"KXKXKXKXKXKXKXKXKXKXKXKXKXKXKXKXKXKXKXy.t.u.i.r.t.n.5.3.1.'.#X*X>XsXdXdXdXfXsX>X$.n KXKXKXKXKXKXKXKXKXKXKXKXKXKXKXKXKXKXKXKXKXKX",
"KXKXKXKXKXKXKXKXKXKXKXKXKXKXKXKXKXKXa.p.u.i.e.e.y.5.7.5.C.rXgXgXNXVXVXVXVXBXBXaX@X:.m KXKXKXKXKXKXKXKXKX! W W W W ~ KXKXKXKXKXKX",
"KXKXKXKXKXKXKXKXKXKXKXKXKXKXKXKXa.a.p.i.u.u.e.q.1.9.5.`.gXHXGXGXGXGXGXGXGXGXHXGXGXNX2X1.KXKXKXKXKXL L W ! L P J D L L W ~ KXKXKX",
"KXKXKXKXKXKXKXKXKXKXKXKXKXKXKXa.a.a.p.i.e.w.w.h.4.3.,XwXHXGXGXGXGXGXGXGXGXGXGXGXGXGXHXVXJXNXKXJ L L ! ] ! W D Z D L ;.;.-.~ ^ KX",
"KXKXKXKXKXKXKXKXKXKXKXKXKX$X+X+X,Xh.s.p.u.t.M.7.9.1. XZXGXGXGXGXGXGXGXGXGXGXGXGXGXHXVXVXNXrX!.W K ^ ^ I G Z n b b n n Z Z Z I KX",
"KXKXKXKXKXKXKXKXKXKXKXKX+X8.8.8.8.8.8.8.9.5.7.3.2.`.pXDXFXGXFXGXGXGXGXGXGXFXGXHXHXJXvXrXQ.V.K K K G Z C 3 1 ; ; 1 4 N 4 1 1 S G ",
"KXKXKXKXKXKXKXKXKXKXKXH M N m | 2.9.7.7.7.7.7.2.@.2XbXSXDXFXFXSXDXFXDXDXDXAXSXJXNXiXT.f.F K G D Z C b : ; 1 M } } | | } } m n 3 ",
"KXKXKXKXKXKXKXKXKXKXKXKXKXKXKXl.b.b.z.@.=.=. .#.Y.hXbXCXCXCXSXCXCXZXZXZXZXMXMXcXtXI.f.6 C Z S b b 1 ; 1 N } +.X.+.X.o.o.| } m 3 ",
"KXKXKXKXKXKXKXKXKXKXKXKXKXKXKX0X8X8X8X4X<XY.U.1XuXkXbXbXbXbXbXlXlXlXlXzXzXiXpXuXP.x.q C C b b b : ; 4 M | X.o.O.O.O.O.o. .} m KX",
"KXKXKXKXKXKXKXKXKXKXKXKXKXKXKXxXlXxXxXlXkXjXhXyXhXkXkXkXkXkXkXjXjXjXhXtXtXuX3XH.B.q.9 3 b b b : ; 4 M +.O.O.O.O.o.o. . ...N 4 KX",
"KXKXKXKXKXKXKXKXKXKXKXKXKXm.T.kXnXbXbXxXcXkXhXhXyX9X9X9X9X8X8X8XqX8XqX8X3X<XH.Z.j.q 7 2 b : : # n } +.+.O.O.o.O.o.o. ...H KXKXKX",
"KXKXKXKXKXKXKXKXKXKXm.R I I F.yXnXbXxXkXjXyX9X9X8X4X4X4X0X<XR.0X1X1X1X<XY.G.Z.n.j.0 2 4 , : - N } X.+.X.o.o.o.O.o.o...} KXKXKXKX",
"KXKXKXKXKXKXKXKXKXV.g.~ G A f.6XxXkXjXyX9X5X4X4X<X<XU.<XY.Y.Y.Y.Y.Y.P.Z.Z.Z.v.j.h.q 7 1 : - - N | O.O.X.o.o.o.O. ...H KXKXKXKXKX",
"KXKXKXKXKXKXKXKXV.~ ~ I S : 6 F.jXyX8X0X4X<XU.Y.Y.H.H.H.H.G.G.G.G.G.v.v.v.n.j.k.#.q q 9 2 - 4 M | O.o.o.o.o.+.| ..KXKXKXKXKXKXKX",
"KXKXKXKXKXKXKX~ ~ ~ ^ S 7 : > f.2X1X1XU.Y.P.P.G.H.H.G.G.Z.G.Z.v.v.n.n.n.z.j.j.j.#.#.KXKXKX2 < m |  . . . ...H M KXKXKXKXKXKXKXKX",
"KXKXKXKXKXKXKX^ ^ G A C : > = 7 k.J.J.G.G.G.Z.Z.Z.v.v.n.n.n.n.n.z.z.z.z.z.j.KXKXKXKXKXKXKXKXKX2 4 M } M N KXKXKXKXKXKXKXKXKXKXKX",
"KXKXKXKXKXKX%.I A A C 7 > - @ $ < q z.v.v.n.v.v.n.n.n.n.j.j.j.j.z.KXKXKXKXKXKXKXKXKXKXKXKXKXKXKXKXKXKXKXKXKXKXKXKXKXKXKXKXKXKXKX",
"KXKXKXKXKXKXG A S b : : > % + @ $ $ * 9 k.z.z.j.j.z.z.z.z.KXKXKXKXKXKXKXKXKXKXKXKXKXKXKXKXKXKXKXKXKXKXKXKXKXKXKXKXKXKXKXKXKXKXKX",
"KXKXKXKXKXG Z C C : : ; > & % O @ $ $ * * KXKXKXKXKXKXKXKXKXKXKXKXKXKXKXKXKXKXKXKXKXKXKXKXKXKXKXKXKXKXKXKXKXKXKXKXKXKXKXKXKXKXKX",
"KXKXKXKXKXA b 3 : : ; - % # + O O O @ * 5 KXKXKXKXKXKXKXKXKXKXKXKXKXKXKXKXKXKXKXKXKXKXKXKXKXKXKXKXKXKXKXKXKXKXKXKXKXKXKXKXKXKXKX",
"KXKXKXKXKXC 1 : > - # # + + + + + O & * KXKXKXKXKXKXKXKXKXKXKXKXKXKXKXKXKXKXKXKXKXKXKXKXKXKXKXKXKXKXKXKXKXKXKXKXKXKXKXKXKXKXKXKX",
"KXKXKXKXKXKX1 ; - - # # + + + + + & < KXKXKXKXKXKXKXKXKXKXKXKXKXKXKXKXKXKXKXKXKXKXKXKXKXKXKXKXKXKXKXKXKXKXKXKXKXKXKXKXKXKXKXKXKX",
"KXKXKXKXKXKX2 ; - # # + # + + O & & KXKXKXKXKXKXKXKXKXKXKXKXKXKXKXKXKXKXKXKXKXKXKXKXKXKXKXKXKXKXKXKXKXKXKXKXKXKXKXKXKXKXKXKXKXKX",
"KXKXKXKXKXKXKX2 * % & % = & % & < KXKXKXKXKXKXKXKXKXKXKXKXKXKXKXKXKXKXKXKXKXKXKXKXKXKXKXKXKXKXKXKXKXKXKXKXKXKXKXKXKXKXKXKXKXKXKX",
"KXKXKXKXKXKXKXKXKX5 < * * < 2 KXKXKXKXKXKXKXKXKXKXKXKXKXKXKXKXKXKXKXKXKXKXKXKXKXKXKXKXKXKXKXKXKXKXKXKXKXKXKXKXKXKXKXKXKXKXKXKXKX"
};
