/* XPM */
static char *result[] = {
/* columns rows colors chars-per-pixel */
"64 64 217 2 ",
"   c #090606",
".  c #1B0303",
"X  c #161616",
"o  c #2C0000",
"O  c #2A060A",
"+  c #3C0001",
"@  c #340207",
"#  c #3F1117",
"$  c #1D1D23",
"%  c #262628",
"&  c #2A2A32",
"*  c #313131",
"=  c #440002",
"-  c #4C0001",
";  c #4A060B",
":  c #550001",
">  c #5C0001",
",  c #54070E",
"<  c #48071B",
"1  c #481518",
"2  c #5D0719",
"3  c #630002",
"4  c #6A0002",
"5  c #650C0E",
"6  c #720103",
"7  c #6D101B",
"8  c #580D25",
"9  c #5E112E",
"0  c #6D0E22",
"q  c #741838",
"w  c #69182F",
"e  c #4B2B3C",
"r  c #6D2129",
"t  c #682D34",
"y  c #7E3539",
"u  c #3F3F44",
"i  c #7C1F40",
"p  c #742D4A",
"a  c #404149",
"s  c #4A4958",
"d  c #665357",
"f  c #744C53",
"g  c #4C5463",
"h  c #545968",
"j  c #585A70",
"k  c #6D5D72",
"l  c #5A6575",
"z  c #6A696C",
"x  c #686C78",
"c  c #747378",
"v  c #746A7E",
"b  c #86203B",
"n  c #871F44",
"m  c #8A2A4E",
"M  c #85264A",
"N  c #962446",
"B  c #892B51",
"V  c #962C54",
"C  c #8F3056",
"Z  c #94325A",
"A  c #9C355E",
"S  c #943157",
"D  c #A8355B",
"F  c #AE345C",
"G  c #9C3662",
"H  c #A33966",
"J  c #AB3B65",
"K  c #A93B67",
"L  c #B63A68",
"P  c #C43668",
"I  c #D23D72",
"U  c #855F68",
"Y  c #B8426C",
"T  c #BA4372",
"R  c #8D6368",
"E  c #CB4C7E",
"W  c #C54677",
"Q  c #D94178",
"!  c #D6517E",
"~  c #E6427C",
"^  c #5C7287",
"/  c #6A7685",
"(  c #767A86",
")  c #7B7C93",
"_  c #8A7C87",
"`  c #D34E81",
"'  c #D45384",
"]  c #DE5589",
"[  c #DE5B8C",
"{  c #D95786",
"}  c #CF5283",
"|  c #EA4C86",
" . c #F34C89",
".. c #F04987",
"X. c #E6568B",
"o. c #F7548F",
"O. c #E55D91",
"+. c #FD5393",
"@. c #FE5A9B",
"#. c #F85794",
"$. c #DC608F",
"%. c #E36394",
"&. c #EB699A",
"*. c #FA649C",
"=. c #FF5EA1",
"-. c #C87DA0",
";. c #FF62A3",
":. c #FF6BAB",
">. c #FB6AA5",
",. c #EC77A4",
"<. c #FC74AB",
"1. c #F377A6",
"2. c #FE6DB0",
"3. c #FF73B2",
"4. c #FF7CB9",
"5. c #FF79B6",
"6. c #7A818D",
"7. c #798494",
"8. c #6E8199",
"9. c #7A8EA3",
"0. c #828C99",
"q. c #818894",
"w. c #89929C",
"e. c #8F8C93",
"r. c #AA969F",
"t. c #8B98A5",
"y. c #929CA6",
"u. c #959CA9",
"i. c #869DB4",
"p. c #A89AAA",
"a. c #95A3AD",
"s. c #9AA4AC",
"d. c #9BA8AE",
"f. c #9CACB4",
"g. c #9DAFB9",
"h. c #96A7B4",
"j. c #9EB1BB",
"k. c #88A0B7",
"l. c #ACACAC",
"z. c #A1AEB5",
"x. c #A4A8B5",
"c. c #A3B0B6",
"v. c #A4B3BB",
"b. c #AAB5BC",
"n. c #ACB9BE",
"m. c #AEB1B1",
"M. c #B2B8BD",
"N. c #FC82B4",
"B. c #FD8BBD",
"V. c #FC83B8",
"C. c #F680AE",
"Z. c #CFA1B8",
"A. c #92AFC5",
"S. c #8DADC6",
"D. c #A2B6C1",
"F. c #A5BAC4",
"G. c #ADBBC2",
"H. c #A7BECA",
"J. c #AABFCA",
"K. c #B2BDC3",
"L. c #B0BFC8",
"P. c #FF88C0",
"I. c #ABC2CD",
"U. c #B4C1C6",
"Y. c #B6C3C9",
"T. c #BAC5CB",
"R. c #BDC9CE",
"E. c #B8C1C6",
"W. c #ADC5D2",
"Q. c #AEC9D6",
"!. c #AEC9D8",
"~. c #B2CAD5",
"^. c #BECAD1",
"/. c #B3CDDA",
"(. c #B0C6D1",
"). c #B5D0DE",
"_. c #B8D2DE",
"`. c #B6D2E1",
"'. c #BAD6E4",
"]. c #BBD8E7",
"[. c #BDDCEB",
"{. c #BFDFF0",
"}. c #C4C8CC",
"|. c #C2CDD3",
" X c #C5D1D6",
".X c #C6D2D9",
"XX c #CAD5DB",
"oX c #CDD9DE",
"OX c #C8D2D7",
"+X c #D5D9DC",
"@X c #CEDBE1",
"#X c #C1DFEE",
"$X c #C9DAE5",
"%X c #D2DDE3",
"&X c #D8D9E0",
"*X c #C0DFF0",
"=X c #C4E1EE",
"-X c #D5E1E7",
";X c #DAE1E6",
":X c #D6E3E9",
">X c #DAE5EB",
",X c #DDE9EE",
"<X c #C3E3F3",
"1X c #CAEBFA",
"2X c #C8E7F7",
"3X c #DEEBF1",
"4X c #E4E9EC",
"5X c #E2EEF3",
"6X c #E4F1F6",
"7X c #EAF3F6",
"8X c #E6F4F9",
"9X c #EAF6FA",
"0X c #EDFAFD",
"qX c #F4FCFE",
"wX c #FCFFFF",
"eX c #F3F5F6",
"rX c None",
/* pixels */
"rXrXrXrXrXrXrXrXrXrXrXrXrXrXrXrXrXrXrXrXrXrXrXrXrX4X5X5X6X6X6X5X5X3X>X>XrXrXrXrXrXrXrXrXrXrXrXrXrXrXrXrXrXrXrXrXrXrXrXrXrXrXrXrX",
"rXrXrXrXrXrXrXrXrXrXrXrXrXrXrXrXrXrXrXrXrXrX5X7X0X0X0XqXqXeXeX9X7X7X5X5X5X,X%X@XrXrXrXrXrXrXrXrXrXrXrXrXrXrXrXrXrXrXrXrXrXrXrXrX",
"rXrXrXrXrXrXrXrXrXrXrXrXrXrXrXrXrXrXrX6X7XqX0X0XqXeXwXeXqXeXwXeXqX9X9X7X6X5X3X:X-X$XrXrXrXrXrXrXrXrXrXrXrXrXrXrXrXrXrXrXrXrXrXrX",
"rXrXrXrXrXrXrXrXrXrXrXrXrXrXrXrXrX5X6XeXqXqXwXwXwXwXwXwXqXqXwXqXqXqXqX0X9X8X8X3X,X:X@X.XrXrXrXrXrXrXrXrXrXrXrXrXrXrXrXrXrXrXrXrX",
"rXrXrXrXrXrXrXrXrXrXrXrXrXrXrXrX6X7XqXqXeXwXwXwXwXwXwXwXwXwXwXwXqXwXqXqXqX9X8X6X5X3X:X=XXX XrXrXrXrXrXrXrXrXrXrXrXrXrXrXrXrXrXrX",
"rXrXrXrXrXrXrXrXrXrXrXrXrXrX,X7XqXeXwXwXwXwXwXwXwXwXwXwXwXwXwXwXwXqXqXqXqXqX9X7X6X3X3X:X$XXX XrXrXrXrXrXrXrXrXrXrXrXrXrXrXrXrXrX",
"rXrXrXrXrXrXrXrXrXrXrXrXrX,X9XqXwXwXwXwXwXwXwXwXwXwXwXwXwXwXwXwXwXqXqXqXqXqX0X9X8X8X3X,X-X@X.X XrXrXrXrXrXrXrXrXrXrXrXrXrXrXrXrX",
"rXrXrXrXrXrXrXrXrXrXrXrX5X7XqXwXwXwXwXwXwXwXwXwXwXwXwXwXwXwXwXwXwXwXqXqXqXqX0X9X8X8X6X3X>X@XoX X XrXrXrXrXrXrXrXrXrXrXrXrXrXrXrX",
"rXrXrXrXrXrXrXrXrXrXrX4X9XqXwXwXwXwXwXwXwXwXwXwXwXwXwXwXwXwXwXwXwXwXqXqXqXqX0X0X0X8X8X6X,X:XoXXX|.|.rXrXrXrXrXrXrXrXrXrXrXrXrXrX",
"rXrXrXrXrXrXrXrXrXrX>X7XqXwXwXwXwXwXwXwXwXwXwXwXwXwXwXwXwXwXwXwXwXqXwXwXqX0X0X0X8X8X8X6X3X:X-XoX.X|.T.rXrXrXrXrXrXrXrXrXrXrXrXrX",
"rXrXrXrXrXrXrXrXrXrX6XqXwXwXwXwXwXwXwXwXwXwXwXwXwXwXwXl.wXwXwXwXwXqXqXqXqXqX0X0X9X8X8X5X4X,X:X%XXX|.R.E.rXrXrXrXrX>X7XwX,XG.rXrX",
"rXrXrXrXrXrXrXrXrX5XqXwXwXwXwXwXwXeXwXwXwXwXwXwXwXwXm.}.wXwXwXqXwXwXwXqXqXqX0X0X9X8X8X5X5X>X;X%XoXOX}.E.M.rXrXrX>X9XqX0XXXb.rXrX",
"rXrXrXrXrXrXrXrXrX7XwXwXwXwXwXwX}.z wXwXwXwXwXwXwXc e.wXwXwXwXwXqXwXqXqXqX0X0X0X9X8X5X5X5X>X;X%XoXOX|.E.K.rXrX>X9XqXqX3X^.b.rXrX",
"rXrXrXrXrXrXrXrX6XeXwXwXwXwXwXwX* X l.wXwXwXwX+X  M.wXwXqXwXqXwXqXqXqXqX0X0X0X0X8X8X5X5X>X>X;X%X+XOX|.T.K.M.>X9XwXqX8X@XU.v.F.rX",
"rXrXrXrXrXrXrX>X7XwXwXwXwXwXwX% wXwX$   * %   c wXwXwXwXqXwXwXwXqXqXqXqXqX0X0X8X8X6X3X3X>X>X;X%X+XXXOX}.T.>X7XqXqX0X,X|.G.b.L.rX",
"rXrXrXrXrXrXrX,XeXwXwXwXwXwX* &XwXwXwXeXh qXz z wXwXwXwXwXwXqXqXqXqXqXqX0X0X9X8X6X3X5X,X>X;X:X%XoXOX|.|.;X6X0XqX9X3X@XT.c.F.rXrX",
"rXrXrXrXrXrXrX7XqXc wXwX4X  ;XwXwXwXwXOXs u.h e wXwXwXqXwXqXwXqXqX0X0X0X0X0X8X6X6X4X,X,X;X-X%XoXXXOX X+X6X9X9X8X3X-X^.U.v.I.rXrX",
"rXrXrXrXrXrX>X0XwXm.X X s a wXwXwXwXwX4Xs j g z wXwXwXwXwXwXqXqXqX0X0X0X8X8X8X6X5X,X,X:X-X-X+XoXXXOXOX;X8X8X8X,X-X_.U.n.v.~.rXrX",
"rXrXrXrXrXrX5XqXwXqXwXx +X& wXwXwXwXwXwX% g & 4XwXwXqXwXwXqXqXqXqX0X0X0X0X8X6X5X5X,X,X;X-X%X+XXXOX XOX>X6X6X3X-X.XR.G.j.I._.rXrX",
"rXrXrXrXrXrX6XqXqXwXqXh x * qXwXwXqXwXwXm.X m.wXwXwXwXqXqXqXqXqX0X0X0X8X8X6X6X6X,X>X:X;X%XoXXXXX X^. X-X3X,X-X@XR.U.n.v.(.[.rXrX",
"rXrXrXrXrX:X8XqXqXwXwXa j z qXwXwXqXwXqXwXqXwXwXqXwXqXqX0X0X8X8X0X8X8X8X6X5X5X,X>X>X;X%XoXoXOX X|.}.R.oX-X%X@X^.Y.G.j.n.~.rXrXrX",
"rXrXrXrXrX>X9X0XqXqXqXX % qXwXwXwXwXwXwXwXqXwXqXqX0XqX0X8X3X>X,X3X3X6X6X5X5X,X,X>X;X%X%X+XXXOX XR.R.R. XoXXX^.T.I.j.j.I._.rXrXrX",
"rXrXrXrXrX,X8X0XqXqXqXqX7XqXqXqXqXwXqXwXqXqXqXqX0X0X8X6X:X@X XoX-X:X3X3X,X5X,X,X-X-X%X@XoXOX X|.R.T.T.^. X^.R.G.v.z.n./.=XrXrXrX",
"rXrXrXrXrX>X8X9X9XqXqXqXqXqXqXqXqXqXqXqXqXqXqX0X9X5X:XoXY.v.n.T..X-X,X3X,X,X,X>X-X-X@X@XOX X|.^.T.E.Y.T.^.Y.I.v.z.j.I._.rXrXrXrX",
"rXrX:X>X%X:X3X8X8X0X0X0X0XqX0X0XqX0X0XqX0X0X9X5X>X$XY.c.g.k.h.b.^.@X:X>X3X>X>X:X%X%XoXXXOX X^.R.T.U.U.U.E.I.n.f.f.F.~.].rXrXrXrX",
":XqXqXeXeX%X3X6X8X8X8X8X8X9X0X9X0X0X9X9X8X5X:X@XY.c.f.0.l g r x.^.@X%X:X>X>X:X:X%XoXoX.XOX^.R.T.U.U.K.K.G.b.c.f.f.I._.rXrXrXrXrX",
"4XwXwXwXqX@X:X,X3X3X6X6X8X8X6X5X6X3X5X3X%X|.G.f.s.) ) 7./ ^ 6 s.T.XX%X%X-X:X:X$X@XoXXX.X XR.R.E.K.K.n.n.n.c.f.f.F.~._.j.9X0X6XR.",
">XqXwXwXwXXX%X^.@X$X-X:X>X:X,X>X-X@X XJ.s.s.0.h h q.T.~.w.7.6 s.T..X@X%X-X%X-X@XoXXX.X.XR.R.E.E.K.M.n.n.c.j.f.v.I./.~.d.0X8X:Xn.",
"|.6X0XqXwXOXXXL.u.c.G.K.K.K.G.c.f.s.t./ c ( / x l u.7X%Xk.( 6 e.^.XXoXoX$X@X@X$XoX X X^.R.T.E.U.n.M.b.c.z.f.f.F.Y./.F.s.,X-X Xn.",
"rXoX6XqXqX.X|.Y.y.( w.u.u.t.7.x ( ( / l / y.s.7.x f 7X>Xh.p 6 R |.@XoX-X@X@XoX@XXX X^.^.R.Y.U.M.n.b.b.c.z.d.z.F.W.W.F.z.n.^.K.I.",
"rXb.oX3X0X|. X^.K.w.. z 0._ x h ) b.t.) t >X%Xu.t > $X3Xh.r 6 b .X%X@X$X@X@XoX.X.X|.R.R.T.E.K.n.b.m.c.c.f.f.c.F.W.I.F.D.F.U.U.rX",
"rXrXb.XX,X^. X XR.Y.z   5XOX7.^ e 6XXXi., t 6XA.3 3 r 4Xh.6 6 7 XX@X@XXXXXoXXX.X X^.R.T.U.U.n.n.v.c.z.z.f.j.v.I.I.W.J.J.J.I.~.rX",
"rXrXrXb. XT..X.X|.|.M.. ( eXL.9.1 f >XS.: > U i.4 3 3 p.A.4 4 5 oXoXoXoXXXoX_. X^.^.T.Y.U.n.n.v.c.c.z.d.d.j.F.I.(.(.(.I.(.~.].rX",
"rXrXrXrXz.K.|.OXXX.X.Xd O 7X%Xi.; - _ ) > 3 3 3 3 3 4 4 r 3 : ; oX%XoXXX.XXX.X^.^.T.Y.U.U.n.n.v.c.c.c.f.j.D.H.(.~.~.~.~./.'.rXrX",
"rXrXrXrXrXs.^.|.XXoXoX|.o d 5XA.= : : > > 3 3 3 3 3 3 3 > - + O +X+X@XXX.X.X^.^.T.Y.U.n.n.n.v.c.c.c.f.f.D.D.H.Q././.)._.].2XrXrX",
"rXrXrXrXrXrXY.|.OX@X%X:Xd o }.S.- : > : > 3 3 3 3 3 > > - o     %X%XoXoX.X.X^.^.Y.U.G.n.v.v.c.c.f.f.f.v.D.H.W.!./.).].].=X1XrXrX",
"rXrXrXrXrXrXc.T..X@X%X%X&X@ + 1 - : : > > > > > > > , , 8 < @ O oX-XoXoX.X^.^.R.U.G.n.n.v.j.j.j.f.c.c.D.H.I.Q./._._.].=X2XrXrXrX",
"rXrXrXrXrXrXrXK.|.XX%X>X;X_ + - : : : : > > > 0 9 < q q 8 ; O O +XoX-XXX^.^.Y.Y.n.n.n.j.c.f.f.f.c.j.F.F.I.Q./.`.].[.[.2X1XrXrXrX",
"rXrXrXrXrXrXrXz.Y.|.XX%X;X>X; = - : > : : - V n 0 P I P F N < 1 -X+XoXOXR.Y.Y.U.n.b.j.c.c.f.f.f.j.D.F.I.Q./.`.].[.[.<X1XrXrXrXrX",
"rXrXrXrXrXrXrXs.G.}.|.@X>X>X}.= - : - = - P P V P ~ I I F N 0 f %XoXOXR.Y.K.I.n.b.c.c.c.f.f.f.j.D.F.I.Q./.).].].[.=X1XrXrXrXrXrX",
"rXrXrXrXrXrXrXrXz.U.}.OX%X;X4Xf = - = + P I P L .. .~ ! Y b 0 r.oXoX|.Y.U.G.b.v.c.c.f.f.g.f.j.D.F.I.!.!.`.`.[.{.=X<X1XrXrXrXrXrX",
"rXrXrXrXrXrXrXrXs.b.T.|.@X;X>X4X1 + + b | Q D ..+.+. .X.W N 2 }.XX|.T.K.n.b.c.v.c.z.f.f.h.j.j.H.I.Q.!.).'.[.{.{.<X1XrXrXrXrXrXrX",
"rXrXrXrXrXrXrXrXrXs.n.T. XoX&X4X4X@ @  . .I I  .@.+.o.[ Y N 2 }.OXK.K.G.b.c.f.f.f.d.f.f.j.D.F.H.W.!.).`.[.{.{.<X1XrXrXrXrXrXrXrX",
"rXrXrXrXrXrXrXrXrXrXd.b.Y.|.oX%X;X&XD +. .P  .@.@.@.#.[ Y b 1 }.E.K.G.b.c.c.f.f.d.h.g.g.j.H.H.W.!.`.'.[.{.{.<X1XrXrXrXrXrXrXrXrX",
"rXrXrXrXrXrXrXrXrXrXs.f.n.K.T.OX@X@Xo.=. .I =.=.=.@.#.{ L i e K.K.x.c.c.z.f.d.d.h.f.j.D.F.I.!.!.`.`.[.{.{.<X2X1XrXrXrXrXrXrXrXrX",
"rXrXrXrXrXrXrXrXrXrXrXd.x.c.K.L.}.Z.=.=.X.#.=.;.=.@.#.} K q a x.x.x.x.f.d.s.a.h.f.j.A.F.H.W.!.!.`.[.{.{.<X2X2XrXrXrXrXrXrXrXrXrX",
"rXrXrXrXrXrXrXrXrXrXrXrXz.f.z.b.G.O.>.;.#.=.2.2.;.=.| } D q l q.u.u.s.a.a.a.h.g.j.D.F.H.W.!.).`.].{.{.{.2X2XrXrXrXrXrXrXrXrXrXrX",
"rXrXrXrXrXrXrXrXrXrXrXrXrXb.c.g.x.=.2.:.;.;.2.:.;.@.| } Z 9 ( 7.y.y.u.a.a.f.j.j.D.H.I.I.!.!.`.].[.<X<X<XrXrXrXrXrXrXrXrXrXrXrXrX",
"rXrXrXrXrXrXrXrXrXrXrXrXrXrXG.D.p.2.3.2.2.2.3.:.;.#.X.T V p 7.t.t.a.h.h.h.g.g.D.D.I.W.!./.`.].[.{.<X<XrXrXrXrXrXrXrXrXrXrXrXrXrX",
"rXrXrXrXrXrXrXrXrXrXrXrXrXrXrXI.-.2.5.3.3.2.2.:.*.o.` Y N k t.a.h.f.f.g.j.D.D.H.I.W.Q./.`.].[.<X<X<XrXrXrXrXrXrXrXrXrXrXrXrXrXrX",
"rXrXrXrXrXrXrXrXrXrXrXrXrXrXrXrX] 2.4.4.4.5.3.>.*.X.! L m _ h.f.f.v.v.D.F.F.H.H.I.!./.).'.[.<X=XrXrXrXrXrXrXrXrXrXrXrXrXrXrXrXrX",
"rXrXrXrXrXrXrXrXrXrXrXrXrXrXrXrX] 2.4.V.V.4.<.>.%.] E L B y.v.v.D.D.F.F.H.H.W.(.!.!.).`.[.{.rXrXrXrXrXrXrXrXrXrXrXrXrXrXrXrXrXrX",
"rXrXrXrXrXrXrXrXrXrXrXrXrXrXrXrXX.<.4.P.B.N.<.*.O.] E J m x.F.J.J.J.J.I.I.(.~.~.)._.'.[.rXrXrXrXrXrXrXrXrXrXrXrXrXrXrXrXrXrXrXrX",
"rXrXrXrXrXrXrXrXrXrXrXrXrXrXrXrX] <.4.P.B.N.<.&.X.` W J m x.I.Y.W.(.(.~.~.~./._.'.].rXrXrXrXrXrXrXrXrXrXrXrXrXrXrXrXrXrXrXrXrXrX",
"rXrXrXrXrXrXrXrXrXrXrXrXrXrXrXrX{ <.N.B.B.N.1.%.X.' T J m b./././././._._._.rXrXrXrXrXrXrXrXrXrXrXrXrXrXrXrXrXrXrXrXrXrXrXrXrXrX",
"rXrXrXrXrXrXrXrXrXrXrXrXrXrXrXrX' >.C.N.B.C.,.%.{ ! T J M rXrXrXrXrXrXrXrXrXrXrXrXrXrXrXrXrXrXrXrXrXrXrXrXrXrXrXrXrXrXrXrXrXrXrX",
"rXrXrXrXrXrXrXrXrXrXrXrXrXrXrXrXW &.<.N.C.C.,.$.{ E T A M rXrXrXrXrXrXrXrXrXrXrXrXrXrXrXrXrXrXrXrXrXrXrXrXrXrXrXrXrXrXrXrXrXrXrX",
"rXrXrXrXrXrXrXrXrXrXrXrXrXrXrXrXrX[ >.,.C.,.&.$.' W J S M rXrXrXrXrXrXrXrXrXrXrXrXrXrXrXrXrXrXrXrXrXrXrXrXrXrXrXrXrXrXrXrXrXrXrX",
"rXrXrXrXrXrXrXrXrXrXrXrXrXrXrXrXrX} &.&.,.%.$.} } Y G B M rXrXrXrXrXrXrXrXrXrXrXrXrXrXrXrXrXrXrXrXrXrXrXrXrXrXrXrXrXrXrXrXrXrXrX",
"rXrXrXrXrXrXrXrXrXrXrXrXrXrXrXrXrXY ` %.$.$.{ } T H Z M C rXrXrXrXrXrXrXrXrXrXrXrXrXrXrXrXrXrXrXrXrXrXrXrXrXrXrXrXrXrXrXrXrXrXrX",
"rXrXrXrXrXrXrXrXrXrXrXrXrXrXrXrXrXrXT E } } } T K A B B H rXrXrXrXrXrXrXrXrXrXrXrXrXrXrXrXrXrXrXrXrXrXrXrXrXrXrXrXrXrXrXrXrXrXrX",
"rXrXrXrXrXrXrXrXrXrXrXrXrXrXrXrXrXrXZ K T T L K G Z B G rXrXrXrXrXrXrXrXrXrXrXrXrXrXrXrXrXrXrXrXrXrXrXrXrXrXrXrXrXrXrXrXrXrXrXrX",
"rXrXrXrXrXrXrXrXrXrXrXrXrXrXrXrXrXrXrXC Z G Z C Z Z H rXrXrXrXrXrXrXrXrXrXrXrXrXrXrXrXrXrXrXrXrXrXrXrXrXrXrXrXrXrXrXrXrXrXrXrXrX",
"rXrXrXrXrXrXrXrXrXrXrXrXrXrXrXrXrXrXrXrXrXC Z G H rXrXrXrXrXrXrXrXrXrXrXrXrXrXrXrXrXrXrXrXrXrXrXrXrXrXrXrXrXrXrXrXrXrXrXrXrXrXrX"
};
